<svg width="515" height="346" viewBox="0 0 515 346" fill="none" xmlns="http://www.w3.org/2000/svg">
<path d="M511.553 321.104C517.74 297.037 513.293 262.39 507.299 249.734C495.117 224.216 471.141 219.651 450.645 201.394C411.78 166.747 415.84 88.9455 409.266 63.8417C386.256 -23.5029 285.903 -12.507 248.778 44.547C242.591 54.0906 222.675 86.8708 185.55 99.1115C143.398 112.804 106.08 94.9621 65.8613 118.199C53.6797 125.253 40.918 136.456 31.8302 147.452C18.8752 163.012 9.40062 181.684 4.3733 201.809C-5.68134 242.058 2.053 286.249 22.9357 321.104H511.553Z" fill="#EFDEC9"/>
<path d="M360.347 5.12799V51.1862H361.12V5.54294L360.347 5.12799Z" fill="#7761A9"/>
<path d="M301.178 4.92045V51.1861H301.952V4.71298L301.178 4.92045Z" fill="#7761A9"/>
<path d="M291.704 59.0493L370.594 59.0493V33.3231L291.704 33.3231V59.0493Z" fill="#A485BC"/>
<path d="M425.122 132.929H423.381V166.539H425.122V132.929Z" fill="#291F58"/>
<path d="M460.119 97.2443H387.803V145.792H460.119V97.2443Z" fill="#D2434A"/>
<path d="M456.252 101.186H391.864V141.643H456.252V101.186Z" fill="white"/>
<path d="M407.333 123.8C407.333 124.423 407.139 124.838 406.946 125.253C406.753 125.668 406.366 126.083 406.173 126.497C405.786 126.912 405.399 127.12 404.819 127.327C404.239 127.535 403.659 127.535 403.079 127.535C402.499 127.535 401.919 127.535 401.145 127.327C400.372 127.12 399.985 126.912 399.405 126.705L399.985 124.423C400.372 124.63 400.759 124.838 401.339 125.045C401.919 125.253 402.305 125.253 402.885 125.253C403.272 125.253 403.659 125.253 404.046 125.045C404.432 124.838 404.432 124.63 404.432 124.215C404.432 124.008 404.239 123.593 404.046 123.385C403.852 123.178 403.272 122.97 402.499 122.556C401.339 122.141 400.565 121.518 399.985 121.103C399.405 120.481 399.212 119.858 399.212 118.821C399.212 117.576 399.598 116.746 400.372 116.124C401.145 115.502 402.112 115.294 403.272 115.294C403.852 115.294 404.626 115.294 405.206 115.502C405.786 115.709 406.366 115.917 406.753 116.124L406.366 118.406C405.979 118.199 405.592 117.991 405.012 117.991C404.626 117.784 404.046 117.784 403.466 117.784C403.079 117.784 402.692 117.784 402.499 117.991C402.305 118.199 402.112 118.406 402.112 118.821C402.112 119.029 402.112 119.236 402.112 119.236C402.112 119.444 402.305 119.443 402.305 119.651C402.499 119.858 402.499 119.858 402.885 120.066C403.079 120.273 403.466 120.273 403.659 120.481C404.046 120.688 404.626 120.896 405.012 121.103C405.399 121.311 405.786 121.518 406.173 121.933C406.559 122.141 406.753 122.556 406.946 122.97C407.333 122.97 407.333 123.385 407.333 123.8Z" fill="#D2434A"/>
<path d="M419.708 125.253H415.454L414.68 127.535H411.78L416.034 115.294H419.128L423.382 127.535H420.481L419.708 125.253ZM416.034 122.763H418.934L417.581 117.576L416.034 122.763Z" fill="#D2434A"/>
<path d="M431.116 115.294V125.045H435.37V127.327H428.409V115.087H431.116V115.294Z" fill="#D2434A"/>
<path d="M440.397 115.294H447.552V117.576H443.298V120.066H447.358V122.348H443.298V125.045H447.552V127.327H440.397V115.294Z" fill="#D2434A"/>
<path d="M437.883 206.373H411.78C410.04 206.373 408.686 204.921 408.686 203.054V164.464C408.686 162.597 410.04 161.145 411.78 161.145H437.883V206.373Z" fill="#F4B44F"/>
<path d="M441.17 160.937H437.883V206.166H443.297V162.597C443.297 161.767 442.331 160.937 441.17 160.937Z" fill="#D4973A"/>
<path d="M431.696 175.253L415.067 176.29C414.68 176.29 414.293 175.875 414.293 175.46V166.332C414.293 165.917 414.68 165.502 415.067 165.502H431.696C432.082 165.502 432.469 165.917 432.469 166.332V174.423C432.276 174.838 432.082 175.253 431.696 175.253Z" fill="white"/>
<path d="M453.739 243.51H427.635C425.895 243.51 424.542 242.058 424.542 240.191V201.601C424.542 199.734 425.895 198.282 427.635 198.282H453.739V243.51Z" fill="#F4B44F"/>
<path d="M457.026 198.075H453.739V243.303H459.153V199.734C459.153 198.904 458.186 198.075 457.026 198.075Z" fill="#D4973A"/>
<path d="M447.551 212.39L430.922 213.427C430.536 213.427 430.149 213.012 430.149 212.597V203.469C430.149 203.054 430.536 202.639 430.922 202.639H447.551C447.938 202.639 448.325 203.054 448.325 203.469V211.56C448.131 211.975 447.938 212.39 447.551 212.39Z" fill="white"/>
<path d="M417.581 243.51H391.284C389.544 243.51 388.19 242.058 388.19 240.191V201.601C388.19 199.734 389.544 198.282 391.284 198.282H417.388V243.51H417.581Z" fill="#F4B44F"/>
<path d="M420.867 198.075H417.58V243.303H422.994V199.734C422.801 198.904 422.028 198.075 420.867 198.075Z" fill="#D4973A"/>
<path d="M411.393 212.39L394.765 213.427C394.378 213.427 393.991 213.012 393.991 212.597V203.469C393.991 203.054 394.378 202.639 394.765 202.639H411.393C411.78 202.639 412.167 203.054 412.167 203.469V211.56C411.974 211.975 411.587 212.39 411.393 212.39Z" fill="white"/>
<path d="M474.428 284.174H448.324C446.584 284.174 445.231 282.722 445.231 280.855V242.265C445.231 240.398 446.584 238.946 448.324 238.946H474.428V284.174Z" fill="#F4B44F"/>
<path d="M477.715 238.738H474.428V283.967H479.842V240.398C479.842 239.568 478.875 238.738 477.715 238.738Z" fill="#D4973A"/>
<path d="M468.24 253.054L451.612 254.091C451.225 254.091 450.838 253.676 450.838 253.261V244.133C450.838 243.718 451.225 243.303 451.612 243.303H468.24C468.627 243.303 469.014 243.718 469.014 244.133V252.224C469.014 252.639 468.627 253.054 468.24 253.054Z" fill="white"/>
<path d="M438.27 284.174H412.166C410.426 284.174 409.073 282.722 409.073 280.855V242.265C409.073 240.398 410.426 238.946 412.166 238.946H438.27V284.174Z" fill="#F4B44F"/>
<path d="M441.557 238.738H438.27V283.967H443.684V240.398C443.684 239.568 442.717 238.738 441.557 238.738Z" fill="#D4973A"/>
<path d="M432.082 253.054L415.453 254.091C415.067 254.091 414.68 253.676 414.68 253.261V244.133C414.68 243.718 415.067 243.303 415.453 243.303H432.082C432.469 243.303 432.856 243.718 432.856 244.133V252.224C432.662 252.639 432.469 253.054 432.082 253.054Z" fill="white"/>
<path d="M402.499 284.174H376.395C374.655 284.174 373.302 282.722 373.302 280.855V242.265C373.302 240.398 374.655 238.946 376.395 238.946H402.499V284.174Z" fill="#F4B44F"/>
<path d="M405.786 238.738H402.499V283.967H407.913V240.398C407.719 239.568 406.753 238.738 405.786 238.738Z" fill="#D4973A"/>
<path d="M396.117 253.054L379.489 254.091C379.102 254.091 378.715 253.676 378.715 253.261V244.133C378.715 243.718 379.102 243.303 379.489 243.303H396.117C396.504 243.303 396.891 243.718 396.891 244.133V252.224C396.891 252.639 396.504 253.054 396.117 253.054Z" fill="white"/>
<path d="M488.736 320.689H462.633C460.893 320.689 459.539 319.237 459.539 317.369V278.78C459.539 276.913 460.893 275.461 462.633 275.461H488.736V320.689Z" fill="#F4B44F"/>
<path d="M492.024 275.461H488.737V320.689H494.151V277.12C494.151 276.29 493.184 275.461 492.024 275.461Z" fill="#D4973A"/>
<path d="M482.549 289.569L465.92 290.606C465.533 290.606 465.146 290.191 465.146 289.776V280.647C465.146 280.232 465.533 279.818 465.92 279.818H482.549C482.935 279.818 483.322 280.232 483.322 280.647V288.739C483.322 289.361 482.935 289.569 482.549 289.569Z" fill="white"/>
<path d="M452.578 320.689H426.475C424.735 320.689 423.381 319.237 423.381 317.369V278.78C423.381 276.913 424.735 275.461 426.475 275.461H452.578V320.689Z" fill="#F4B44F"/>
<path d="M455.865 275.461H452.578V320.689H457.992V277.12C457.799 276.29 457.026 275.461 455.865 275.461Z" fill="#D4973A"/>
<path d="M446.391 289.569L429.762 290.606C429.375 290.606 428.989 290.191 428.989 289.776V280.647C428.989 280.232 429.375 279.818 429.762 279.818H446.391C446.778 279.818 447.164 280.232 447.164 280.647V288.739C446.971 289.361 446.584 289.569 446.391 289.569Z" fill="white"/>
<path d="M416.227 320.689H390.124C388.384 320.689 387.03 319.237 387.03 317.369V278.78C387.03 276.913 388.384 275.461 390.124 275.461H416.227V320.689Z" fill="#F4B44F"/>
<path d="M419.514 275.461H416.227V320.689H421.641V277.12C421.641 276.29 420.675 275.461 419.514 275.461Z" fill="#D4973A"/>
<path d="M410.039 289.569L393.41 290.606C393.024 290.606 392.637 290.191 392.637 289.776V280.647C392.637 280.232 393.024 279.818 393.41 279.818H410.039C410.426 279.818 410.813 280.232 410.813 280.647V288.739C410.619 289.361 410.426 289.569 410.039 289.569Z" fill="white"/>
<path d="M380.456 320.689H354.352C352.612 320.689 351.259 319.237 351.259 317.369V278.78C351.259 276.913 352.612 275.461 354.352 275.461H380.456V320.689Z" fill="#F4B44F"/>
<path d="M383.743 275.461H380.456V320.689H385.87V277.12C385.87 276.29 384.903 275.461 383.743 275.461Z" fill="#D4973A"/>
<path d="M374.268 289.569L357.639 290.606C357.252 290.606 356.866 290.191 356.866 289.776V280.647C356.866 280.232 357.252 279.818 357.639 279.818H374.268C374.655 279.818 375.041 280.232 375.041 280.647V288.739C374.848 289.361 374.655 289.569 374.268 289.569Z" fill="white"/>
<path d="M309.879 129.61C299.245 128.157 304.852 109.9 298.665 105.336C292.477 100.771 283.969 100.771 286.096 94.3398C288.223 87.9083 282.229 72.5555 278.169 69.236C269.854 62.597 258.059 65.2941 254.579 67.1613C252.645 68.1987 249.938 71.1033 247.811 74.8377C246.651 99.5266 236.017 124.215 243.558 148.697V148.904C247.425 161.145 257.866 169.444 269.661 170.274C294.798 171.933 318.001 170.896 323.028 165.709C335.789 153.469 320.708 131.062 309.879 129.61Z" fill="#74444A"/>
<path d="M321.095 159.07C301.372 153.054 302.919 126.498 296.731 125.875C289.77 125.045 286.677 119.859 284.937 114.257" stroke="#8C545B" stroke-width="0.323" stroke-miterlimit="10" stroke-linecap="round" stroke-linejoin="round"/>
<path d="M276.042 94.5474C272.948 94.5474 271.015 96.6221 271.015 96.6221C271.015 96.6221 261.733 94.7548 257.479 86.4561C253.226 78.1573 254.192 70.8959 254.192 70.8959C254.192 70.8959 246.458 74.2154 242.591 80.8544C242.204 81.4768 241.817 82.0992 241.431 82.7216C236.403 89.983 235.437 99.9416 239.691 108.033C240.077 108.863 240.657 109.693 241.044 110.315C245.685 116.747 251.099 118.406 251.099 118.406L247.618 144.133L274.495 147.452L272.561 107.41C272.561 107.41 279.329 108.448 280.876 103.261C282.229 98.0744 279.136 94.5474 276.042 94.5474Z" fill="#F3ACA2"/>
<path d="M277.588 101.394C278.168 98.6966 275.655 96.8294 275.461 96.6219H275.268V96.8294C275.268 96.8294 277.782 98.6966 277.202 101.186C277.202 101.394 277.008 101.809 277.008 102.016C276.428 102.016 274.495 101.809 274.108 101.186C273.528 100.356 273.915 99.734 273.915 99.734V99.5265H273.721C273.721 99.5265 273.335 100.356 273.915 101.394C274.108 101.601 274.301 101.809 274.495 101.809C275.268 102.224 276.622 102.431 277.008 102.431C276.428 104.091 275.461 105.336 275.461 105.336V105.543H275.655C275.655 105.751 277.008 104.091 277.588 101.394Z" fill="#D08487"/>
<path d="M241.817 91.4352C241.817 91.4352 242.397 94.5472 244.138 94.5472C246.071 94.5472 246.265 92.68 246.845 92.68C247.425 92.68 246.845 89.568 245.878 88.7381C243.364 86.4559 241.817 91.4352 241.817 91.4352Z" fill="white"/>
<path d="M247.232 91.4352C247.425 91.2278 247.618 90.6054 247.425 89.9829C247.038 88.9456 246.458 87.7008 245.105 87.2859C242.784 86.8709 241.431 90.8128 241.431 90.8128L241.817 91.2278C241.817 91.2278 243.171 88.5307 244.525 88.1157C246.071 87.9082 247.232 91.4352 247.232 91.4352Z" fill="#2B1D30"/>
<path d="M243.171 90.3981C242.978 92.2653 243.558 93.925 244.331 94.1325C245.105 94.34 246.071 92.6802 246.071 90.813C246.071 88.9458 245.491 88.3234 244.718 88.3234C243.944 87.9084 243.364 88.3234 243.171 90.3981Z" fill="#2B1D30"/>
<path d="M245.48 90.7344C245.527 90.1636 245.478 89.6929 245.372 89.683C245.265 89.6731 245.141 90.1277 245.095 90.6984C245.049 91.2691 245.098 91.7399 245.204 91.7498C245.31 91.7597 245.434 91.3051 245.48 90.7344Z" fill="white"/>
<path d="M255.382 88.4712C255.656 87.8493 253.293 86.0381 250.106 84.4258C246.918 82.8134 244.112 82.0105 243.839 82.6323C243.566 83.2542 245.929 85.0654 249.116 86.6777C252.304 88.2901 255.109 89.093 255.382 88.4712Z" fill="#74444A"/>
<path d="M236.597 94.9621C236.597 94.5472 236.983 94.5472 237.37 94.5472C238.337 94.7546 240.464 95.3771 242.204 95.5845C244.718 95.9995 255.932 96.4144 257.866 96.4144C260.38 95.792 268.501 95.9995 269.081 95.9995L271.014 96.6219C266.374 96.8293 260.766 97.0368 257.479 97.8667C257.286 98.904 257.093 100.564 256.899 103.468C256.706 108.24 261.153 114.464 263.087 116.954C265.02 115.917 267.727 110.937 272.175 107.203V109.07C267.727 112.597 265.987 116.746 263.86 117.991L264.054 118.199C264.054 118.199 264.054 118.199 261.347 120.481C258.639 122.763 252.259 124.63 246.071 121.726C239.884 118.614 234.663 106.165 235.05 102.431C235.436 99.5264 236.21 96.2069 236.597 94.9621Z" fill="#99DAF3"/>
<path d="M325.155 149.734C328.829 143.717 318.387 126.705 311.62 125.875C301.179 124.63 306.206 113.012 300.599 103.883C296.731 97.4518 286.29 99.734 288.224 93.9249C290.157 88.1157 284.356 74.2153 280.296 71.3107C278.362 69.8584 276.429 69.0285 274.302 68.4061" stroke="#74444A" stroke-width="0.323" stroke-miterlimit="10"/>
<path d="M201.212 320.896H305.432L299.245 181.684C298.665 168.406 293.444 155.958 284.356 146.83C269.854 132.514 248.778 129.817 232.923 147.452C224.802 156.373 216.487 165.917 214.36 177.743C210.493 200.149 200.825 321.311 201.212 320.896Z" fill="#D2434A"/>
<path d="M291.704 298.905C291.704 298.905 293.637 293.303 291.317 292.473C289.77 292.058 289.19 295.793 288.997 298.49C288.803 299.942 289.383 301.394 290.157 302.432C291.51 304.091 293.637 304.921 295.571 304.299C296.731 303.884 297.698 303.261 298.085 302.432C299.051 300.149 297.891 299.32 296.151 299.942C294.604 300.564 293.251 300.979 293.251 300.979C293.251 300.979 297.311 296.83 297.118 295.585C296.731 294.34 295.571 293.925 294.024 295.585C292.67 297.245 291.704 298.905 291.704 298.905Z" fill="#F07C74"/>
<path d="M250.325 303.884C250.325 303.884 245.104 301.809 244.331 304.299C243.944 305.959 247.425 306.581 249.938 306.789C251.292 306.996 252.645 306.374 253.612 305.544C255.159 304.092 255.932 301.809 255.352 299.735C254.966 298.49 254.386 297.452 253.612 297.038C251.485 296 250.712 297.245 251.292 299.112C251.872 300.772 252.259 302.224 252.259 302.224C252.259 302.224 248.391 297.867 247.231 298.075C246.071 298.282 245.684 299.735 247.231 301.394C248.778 302.847 250.325 303.884 250.325 303.884Z" fill="#F07C74"/>
<path d="M267.534 257.411C267.534 257.411 264.054 252.639 262.313 254.506C261.153 255.751 263.86 258.033 265.987 259.693C267.147 260.523 268.501 260.938 269.854 260.73C271.788 260.315 273.528 258.863 274.108 256.581C274.302 255.336 274.495 254.091 273.915 253.261C272.561 251.187 271.401 252.017 271.014 253.676C270.628 255.544 270.434 256.996 270.434 256.996C270.434 256.996 269.081 250.979 267.921 250.772C266.761 250.564 265.794 251.394 266.374 253.676C266.567 255.544 267.534 257.411 267.534 257.411Z" fill="#F07C74"/>
<path d="M215.907 254.091C215.907 254.091 214.94 248.282 212.62 248.905C211.073 249.32 212.427 252.847 213.587 255.129C214.167 256.373 215.327 257.411 216.487 257.826C218.421 258.448 220.548 258.033 221.901 256.374C222.675 255.544 223.255 254.506 223.061 253.469C222.675 250.979 221.321 250.979 220.354 252.432C219.194 253.884 218.421 255.129 218.421 255.129C218.421 255.129 219.968 249.112 219.001 248.282C218.034 247.452 216.874 247.867 216.294 250.149C216.1 252.224 215.907 254.091 215.907 254.091Z" fill="#F07C74"/>
<path d="M234.083 211.975C234.083 211.975 236.016 206.373 233.696 205.544C232.149 205.129 231.569 208.863 231.376 211.56C231.182 213.012 231.763 214.465 232.536 215.502C233.889 217.162 236.016 217.992 237.95 217.369C239.11 216.954 240.077 216.332 240.464 215.502C241.43 213.22 240.27 212.39 238.53 213.012C236.983 213.635 235.63 214.05 235.63 214.05C235.63 214.05 239.69 209.9 239.497 208.656C239.304 207.411 237.95 206.996 236.403 208.656C235.05 210.315 234.083 211.975 234.083 211.975Z" fill="#F07C74"/>
<path d="M284.55 211.975C284.55 211.975 278.942 211.353 278.942 213.842C278.942 215.502 282.423 215.087 284.936 214.672C286.29 214.465 287.45 213.635 288.223 212.39C289.384 210.523 289.577 208.241 288.417 206.373C287.837 205.336 287.063 204.506 286.096 204.299C283.776 203.884 283.389 205.336 284.356 206.788C285.323 208.241 286.096 209.485 286.096 209.485C286.096 209.485 281.262 206.373 280.102 206.996C279.136 207.618 279.136 209.071 281.069 210.108C282.616 211.353 284.55 211.975 284.55 211.975Z" fill="#F07C74"/>
<path d="M237.563 165.502C237.563 165.502 239.497 159.9 237.177 159.07C235.63 158.655 235.05 162.39 234.856 165.087C234.663 166.539 235.243 167.992 236.017 169.029C237.37 170.689 239.497 171.519 241.431 170.896C242.591 170.481 243.558 169.859 243.944 169.029C244.911 166.747 243.751 165.917 242.011 166.539C240.464 167.162 239.11 167.577 239.11 167.577C239.11 167.577 243.171 163.427 242.977 162.182C242.591 160.938 241.431 160.523 239.884 162.182C238.724 163.635 237.563 165.502 237.563 165.502Z" fill="#F07C74"/>
<path d="M281.069 160.73C281.069 160.73 275.655 161.975 276.235 164.257C276.622 165.917 279.909 164.465 282.036 163.22C283.196 162.597 284.163 161.353 284.55 159.9C285.13 157.826 284.549 155.543 283.003 154.091C282.229 153.261 281.069 152.639 280.296 152.846C277.975 153.261 277.975 154.714 279.329 155.751C280.682 156.996 281.842 157.826 281.842 157.826C281.842 157.826 276.235 156.373 275.462 157.203C274.688 158.033 275.075 159.485 277.202 159.9C279.135 160.73 281.069 160.73 281.069 160.73Z" fill="#F07C74"/>
<path d="M263.86 232.929C265.214 230.025 261.54 227.535 259.606 230.025C254.772 236.041 249.552 242.473 245.104 246.83C212.427 278.573 204.306 276.705 204.306 276.705C204.306 276.705 203.532 285.627 203.339 287.494C203.339 291.021 202.565 297.452 202.565 297.452C202.565 297.452 232.923 270.274 249.745 251.187C253.419 247.245 260.766 239.776 263.86 232.929Z" fill="#AE363C"/>
<path d="M210.493 228.365C210.493 225.876 210.493 223.593 210.493 221.104V209.693C210.493 209.485 210.493 209.278 210.493 209.07L182.263 230.025C182.263 230.025 156.353 225.253 131.023 220.481C131.216 231.477 129.669 241.228 131.023 250.979C140.497 257.203 152.679 266.125 161.96 272.141C176.849 282.1 195.604 282.1 210.493 272.349V228.365Z" fill="#D2434A"/>
<path d="M159.06 248.697C159.06 248.697 158.093 242.888 155.773 243.51C154.226 243.925 155.579 247.452 156.739 249.734C157.319 250.979 158.48 252.017 159.64 252.432C161.573 253.054 163.7 252.639 165.054 250.979C165.827 250.149 166.407 249.112 166.214 248.075C165.827 245.585 164.474 245.585 163.507 247.037C162.347 248.49 161.573 249.734 161.573 249.734C161.573 249.734 163.12 243.718 162.153 242.888C161.187 242.058 160.026 242.473 159.446 244.755C159.06 246.622 159.06 248.697 159.06 248.697Z" fill="#F07C74"/>
<path d="M210.493 209.693L218.034 203.676C230.409 193.925 241.817 182.929 252.259 171.103" stroke="white" stroke-width="0.646" stroke-miterlimit="10" stroke-linecap="round" stroke-linejoin="round"/>
<path d="M89.838 326.705L47.1058 342.473C45.5589 343.095 43.6254 342.058 43.0453 340.398L17.522 261.352C16.9419 259.693 17.9087 257.618 19.4555 256.996L62.1878 241.228L89.838 326.705Z" fill="#F28E20"/>
<path d="M67.4084 239.361L62.3811 241.228L89.838 326.498L98.1524 323.386L71.8557 241.435C71.2756 239.776 69.342 238.738 67.4084 239.361Z" fill="#F18221"/>
<path d="M83.2784 264.681L51.0919 275.192L67.4199 332.751L99.6063 322.239L83.2784 264.681Z" fill="#D2434A"/>
<path d="M70.1155 335.004L98.3458 325.668L99.6993 322.141L67.4084 332.722L70.1155 335.004Z" fill="#C2B3AD"/>
<path d="M98.2502 325.684L69.9484 334.927L70.3988 336.515L98.7007 327.271L98.2502 325.684Z" fill="#C2B3AD"/>
<path d="M52.1333 271.726L80.557 262.597L83.4574 264.672L51.1665 275.253L52.1333 271.726Z" fill="#C2B3AD"/>
<path d="M79.7986 260.316L51.4967 269.559L52.116 271.743L80.4179 262.499L79.7986 260.316Z" fill="#C2B3AD"/>
<path d="M98.2653 317.552L66.0789 328.064L66.3041 328.858L98.4905 318.346L98.2653 317.552Z" fill="#C2B3AD"/>
<path d="M84.3747 268.357L52.1882 278.869L52.4134 279.663L84.5999 269.151L84.3747 268.357Z" fill="#C2B3AD"/>
<path d="M105.5 280.855C105.5 280.855 100.086 261.767 104.533 257.825C108.98 253.884 111.301 265.917 111.301 265.917C111.301 265.917 116.521 240.605 123.676 238.946C130.83 237.493 120.582 267.784 120.582 267.784C120.582 267.784 122.709 264.05 125.996 266.539C129.283 269.029 120.002 284.589 120.002 284.589L105.5 280.855Z" fill="#009A7E"/>
<path d="M123.395 296.14C137.874 279.606 146.52 263.087 142.706 259.242C138.893 255.397 124.064 265.684 109.585 282.218C95.1065 298.751 86.4605 315.271 90.2739 319.116C94.0873 322.96 108.916 312.674 123.395 296.14Z" fill="#F4B44F"/>
<path d="M131.41 286.871H128.897V283.967H126.383V281.684H124.063V279.402H121.936V277.328H120.002V275.045H117.875V272.971H115.748L115.555 272.763L88.4846 303.676C85.1975 307.411 85.3909 313.22 88.8713 316.747L92.3518 320.274C95.8323 323.801 101.246 323.593 104.533 319.859L131.604 288.946L131.41 286.871Z" fill="#EDEDEE"/>
<path d="M138.261 272.007C138.627 271.59 137.346 269.661 135.401 267.699C133.455 265.738 131.581 264.486 131.216 264.904C130.85 265.321 132.131 267.25 134.077 269.211C136.022 271.173 137.896 272.425 138.261 272.007Z" fill="#FDC97E"/>
<path d="M131.434 279.779C131.799 279.361 130.519 277.433 128.573 275.471C126.627 273.51 124.754 272.258 124.388 272.675C124.023 273.093 125.303 275.021 127.249 276.983C129.195 278.945 131.068 280.196 131.434 279.779Z" fill="#FDC97E"/>
<path d="M108.16 327.546C113.105 325.712 111.514 306.843 104.606 285.4C97.6984 263.958 88.0893 248.062 83.1437 249.897C78.1982 251.731 79.7891 270.6 86.697 292.043C93.605 313.485 103.214 329.381 108.16 327.546Z" fill="#F4B44F"/>
<path d="M100.473 273.593L99.5058 275.875L97.1855 274.631L96.0253 276.913L94.0917 275.875L93.125 277.95L91.1914 276.913L90.2246 278.987L88.4843 278.158L87.5176 280.025L85.584 278.987L84.6172 281.062L82.8769 280.232L81.9102 282.307H81.7168L94.6718 322.349C96.2187 327.12 101.053 329.817 105.693 328.158L110.14 326.498C114.588 324.838 117.101 319.651 115.555 314.672L102.6 274.631L100.473 273.593Z" fill="white"/>
<path d="M87.2771 262.73C89.8003 261.794 91.7044 260.596 91.5299 260.055C91.3555 259.513 89.1686 259.833 86.6454 260.769C84.1221 261.705 82.2181 262.902 82.3925 263.444C82.567 263.985 84.7539 263.666 87.2771 262.73Z" fill="#FDC97E"/>
<path d="M90.5404 272.905C93.0636 271.969 94.9677 270.771 94.7932 270.23C94.6188 269.688 92.4319 270.008 89.9087 270.944C87.3854 271.88 85.4814 273.078 85.6558 273.619C85.8303 274.16 88.0172 273.841 90.5404 272.905Z" fill="#FDC97E"/>
<path d="M148.039 271.933H15.2016C13.0747 271.933 11.5278 273.801 11.5278 275.875V276.083C11.5278 278.365 13.2681 280.025 15.2016 280.025H16.3618L31.057 341.851C31.6371 344.34 33.7641 346 36.0844 346H127.543C129.863 346 131.99 344.34 132.57 341.851L147.072 280.025H148.232C150.359 280.025 151.906 278.157 151.906 276.083V275.875C151.906 273.593 150.166 271.933 148.039 271.933ZM38.9847 326.29H36.2777C35.6976 326.29 35.1176 325.875 35.1176 325.253L31.4438 298.282C31.2504 297.452 31.8305 296.83 32.6039 296.83H38.7914C39.3715 296.83 39.9515 297.452 39.9515 298.074L40.1449 325.045C40.1449 325.668 39.7582 326.29 38.9847 326.29ZM55.4202 326.29H52.7132C52.1331 326.29 51.553 325.875 51.553 325.253L47.8792 298.282C47.6859 297.452 48.2659 296.83 49.0394 296.83H55.2268C55.8069 296.83 56.387 297.452 56.387 298.074L56.5804 325.045C56.5804 325.668 56.0003 326.29 55.4202 326.29ZM70.1155 326.29H66.0549C65.4748 326.29 65.0881 325.875 65.0881 325.253L63.3479 297.66C63.3479 297.037 63.7346 296.622 64.3147 296.622H69.9221C70.5022 296.622 70.8889 297.037 70.8889 297.66L71.0822 325.253C71.0822 325.668 70.5022 326.29 70.1155 326.29ZM83.8439 325.045C83.8439 325.668 83.4572 326.083 82.8771 326.083H78.2365C77.6564 326.083 77.2697 325.668 77.2697 325.045V297.66C77.2697 297.037 77.6564 296.622 78.2365 296.622H82.8771C83.4572 296.622 83.8439 297.037 83.8439 297.66V325.045ZM98.5391 325.253C98.5391 325.875 98.1524 326.29 97.5724 326.29H93.5118C92.9318 326.29 92.545 325.875 92.545 325.253V297.66C92.545 297.037 92.9318 296.622 93.5118 296.622H99.1192C99.6993 296.622 100.086 297.037 100.086 297.66L98.5391 325.253ZM115.748 298.074L112.074 325.045C112.074 325.668 111.494 326.083 110.914 326.083H108.207C107.627 326.083 107.047 325.46 107.047 324.838L107.24 297.867C107.24 297.245 107.82 296.622 108.4 296.622H114.588C115.168 296.622 115.748 297.245 115.748 298.074ZM131.99 298.074L128.316 325.045C128.316 325.668 127.736 326.083 127.156 326.083H124.449C123.869 326.083 123.289 325.46 123.289 324.838L123.482 297.867C123.482 297.245 124.062 296.622 124.643 296.622H130.83C131.603 296.622 132.184 297.245 131.99 298.074Z" fill="#5269B0"/>
<path d="M127.543 276.083L84.2307 211.352C83.6506 210.522 82.6838 210.108 81.717 210.108C80.7502 210.108 79.7834 210.522 79.2033 211.352L35.8911 276.083C34.9243 277.535 35.311 279.61 36.6645 280.647C38.018 281.684 39.9516 281.27 40.9184 279.817L81.717 218.821L122.709 279.817C123.676 281.27 125.609 281.684 126.963 280.647C128.316 279.61 128.51 277.535 127.543 276.083Z" fill="#303E61"/>
<path d="M132.57 220.896C122.322 219.029 112.654 217.161 105.113 215.709C96.9923 213.427 88.0978 211.56 86.1642 211.767C86.1642 211.767 85.1974 211.767 84.8107 211.975L74.176 217.576C73.4026 217.991 72.8225 219.029 73.0159 219.859C73.4026 221.311 74.5627 221.933 75.7229 221.311L79.9768 219.029C78.2365 221.726 76.6897 224.215 76.4963 224.838C75.5295 227.12 77.0764 228.157 77.6565 227.742C79.2033 226.705 85.0041 218.406 85.0041 218.406C85.0041 218.406 80.9436 227.12 80.3635 228.78C79.7834 230.44 81.9104 231.477 83.0705 230.854C84.2307 230.025 88.4845 222.763 88.4845 222.763C88.4845 222.763 85.3908 230.44 86.9377 230.854C89.258 231.477 91.3849 225.875 91.3849 225.875C94.4787 228.987 98.3458 231.062 102.406 232.307C102.986 232.514 103.567 232.929 104.34 233.344C104.92 233.967 105.307 234.381 105.5 234.381C105.5 234.381 116.715 241.85 131.023 251.394C131.797 241.02 132.764 230.854 132.57 220.896Z" fill="#F3ACA2"/>
</svg>
