<svg width="1440" height="830" viewBox="0 0 1440 830" fill="none" xmlns="http://www.w3.org/2000/svg">
<g clip-path="url(#clip0_26_2)">
<rect width="1440" height="830" fill="#F8FAFB"/>
<rect x="-38.4695" y="-13" width="87.1663" height="752.8" fill="#1B2E36"/>
<circle cx="17" cy="781.665" r="114.335" fill="#EA5455"/>
<rect width="85.9197" height="742.034" transform="matrix(-1 0 0 1 1472.68 0)" fill="#1B2E36"/>
<circle cx="112.7" cy="112.7" r="112.7" transform="matrix(-1 0 0 1 1530.7 670.6)" fill="#EA5455"/>
<path d="M907.717 554.086C851.522 490.997 780.372 527.233 724.036 526.629C698.192 469.941 567.563 433.5 503.42 529.634C461.031 589.781 495.337 686.827 599.273 698.262C620.273 761.07 698.211 806.193 797.73 758.615C923.009 694.152 943.796 594.592 907.717 554.086Z" fill="#F6F6F6"/>
<path d="M927.191 688.871C927.191 688.871 908.44 699.961 902.581 708.339C896.73 716.699 887.754 720.093 887.754 720.093L878.973 715.935L879.706 725.385C861.531 732.896 843.64 721.976 839.417 719.087C838.797 718.67 838.469 718.429 838.469 718.429C836.941 694.228 868.055 688.687 888.946 684.427C909.807 680.174 927.191 688.871 927.191 688.871Z" fill="#DBC6CE"/>
<path opacity="0.2" d="M905.245 691.831L883.607 703.607L880.482 700.552L877.116 703.857C877.116 703.857 849.48 710.17 839.3 718.994L849.378 712.465L866.107 704.223L879.834 699.054C879.834 699.056 897.353 693.302 905.245 691.831Z" fill="#EA5455"/>
<path opacity="0.1" d="M927.191 688.871C927.191 688.871 908.44 699.962 902.581 708.34C896.731 716.699 887.754 720.093 887.754 720.093L878.973 715.935L879.706 725.385C861.531 732.896 843.64 721.976 839.417 719.088C840.019 719.065 840.424 719.075 840.424 719.075C869.557 726.57 873.835 719.038 873.835 719.038L876.061 707.471L884.828 710.235C884.828 710.235 893.982 705.345 899.331 698.924C904.669 692.521 927.191 688.871 927.191 688.871Z" fill="white"/>
<path d="M905.234 691.76C893.275 694.279 881.528 697.796 870.111 702.185C858.76 706.688 847.6 712.033 837.851 719.56L836.013 720.952C835.395 721.409 834.859 721.969 834.278 722.471L830.855 725.574C828.723 727.768 826.555 729.926 824.48 732.174C822.741 734.039 821.04 735.937 819.346 737.843C819.609 738.218 819.879 738.588 820.154 738.955C821.904 736.98 823.664 735.016 825.462 733.086C827.497 730.818 829.626 728.638 831.717 726.423L835.038 723.33C835.603 722.828 836.121 722.27 836.724 721.811L838.519 720.414C848.057 712.876 859.101 707.424 870.361 702.814C881.673 698.272 893.356 694.585 905.261 691.892L905.234 691.76Z" fill="#F6F6F6"/>
<path d="M902.423 636.737C902.423 636.737 893.422 653.215 892.776 662.003C892.128 670.775 886.974 677.244 886.974 677.244L878.632 678.031L883.344 684.711C873.189 698.282 855.115 698.071 850.711 697.792C850.067 697.755 849.718 697.721 849.718 697.721C837.909 680.461 858.521 662.648 872.121 650.29C885.705 637.95 902.423 636.737 902.423 636.737Z" fill="#E3E0E1"/>
<path opacity="0.2" d="M887.467 648.596L876.628 666.854L872.966 665.968L871.929 669.899C871.929 669.899 854.235 686.75 850.585 697.773L855.172 688.497L863.931 675.021L871.824 665.143C871.824 665.145 882.267 653.164 887.467 648.596Z" fill="#EA5455"/>
<path opacity="0.1" d="M902.423 636.737C902.423 636.737 893.422 653.215 892.776 662.003C892.128 670.775 886.974 677.244 886.974 677.244L878.632 678.031L883.344 684.711C873.189 698.282 855.115 698.071 850.711 697.792C851.147 697.509 851.452 697.339 851.452 697.339C876.346 690.06 876.192 682.593 876.192 682.593L872.74 673.041L880.457 671.228C880.457 671.228 885.082 663.573 886.213 656.457C887.343 649.363 902.423 636.737 902.423 636.737Z" fill="white"/>
<path d="M887.427 648.549C879.677 655.685 872.524 663.463 866 671.746C859.576 680.083 853.664 688.959 849.759 698.833L849.012 700.673C848.756 701.285 848.605 701.934 848.396 702.563L847.228 706.37C846.616 708.935 845.962 711.489 845.416 714.069C844.95 716.216 844.527 718.373 844.113 720.53C844.474 720.692 844.837 720.848 845.203 720.999C845.628 718.765 846.066 716.533 846.548 714.311C847.055 711.733 847.67 709.182 848.244 706.619L849.34 702.864C849.536 702.242 849.674 701.602 849.918 700.995L850.632 699.169C854.375 689.383 860.153 680.476 866.464 672.101C872.841 663.752 879.871 655.875 887.507 648.634L887.427 648.549Z" fill="#F6F6F6"/>
<path d="M476.655 705.793C476.655 705.793 485.655 722.271 486.302 731.06C486.95 739.831 492.104 746.3 492.104 746.3L500.446 747.087L495.734 753.767C505.888 767.338 523.963 767.128 528.367 766.848C529.01 766.811 529.36 766.777 529.36 766.777C541.169 749.517 520.557 731.704 506.957 719.346C493.372 707.006 476.655 705.793 476.655 705.793Z" fill="#E3E0E1"/>
<path opacity="0.2" d="M491.61 717.653L502.448 735.912L506.11 735.026L507.147 738.956C507.147 738.956 524.841 755.807 528.492 766.831L523.904 757.554L515.145 744.078L507.253 734.201C507.253 734.201 496.809 722.22 491.61 717.653Z" fill="#EA5455"/>
<path opacity="0.1" d="M476.655 705.793C476.655 705.793 485.655 722.271 486.302 731.06C486.95 739.831 492.104 746.3 492.104 746.3L500.446 747.087L495.734 753.767C505.888 767.338 523.963 767.128 528.367 766.848C527.93 766.565 527.626 766.395 527.626 766.395C502.732 759.116 502.886 751.65 502.886 751.65L506.337 742.097L498.621 740.284C498.621 740.284 493.996 732.629 492.864 725.513C491.735 718.419 476.655 705.793 476.655 705.793Z" fill="white"/>
<path d="M491.651 717.605C499.401 724.741 506.553 732.519 513.077 740.802C519.502 749.139 525.414 758.015 529.319 767.889L530.066 769.729C530.322 770.341 530.473 770.99 530.682 771.62L531.85 775.427C532.461 777.992 533.116 780.547 533.661 783.127C534.128 785.274 534.551 787.431 534.965 789.588C534.604 789.75 534.241 789.906 533.875 790.056C533.45 787.823 533.012 785.59 532.53 783.37C532.023 780.792 531.408 778.241 530.834 775.677L529.738 771.923C529.542 771.301 529.404 770.661 529.16 770.054L528.446 768.228C524.703 758.441 518.925 749.535 512.614 741.16C506.237 732.81 499.207 724.934 491.571 717.693L491.651 717.605Z" fill="#F6F6F6"/>
<path d="M917.228 720.239C915.422 723.681 912.602 724.667 910.044 724.146C907.491 723.491 904.454 721.935 902.975 719.887C901.446 718.044 904.123 713.772 910.242 712.652C916.476 711.698 919.192 716.85 917.228 720.239ZM505.138 694.391C503.332 697.833 500.513 698.818 497.955 698.297C495.401 697.643 492.364 696.086 490.885 694.039C489.356 692.196 492.033 687.924 498.152 686.804C504.388 685.85 507.102 691 505.138 694.391Z" fill="#E3E0E1"/>
<path d="M530.829 591.553L545.758 786.725L848.388 788.472L860.602 596.578L530.829 591.553Z" fill="#DBC6CE"/>
<path opacity="0.2" d="M848.271 687.491C845.783 690.174 843.022 692.491 839.885 694.377C836.788 696.24 833.518 697.8 830.434 699.689C827.042 701.766 823.886 704.17 822.402 707.992C821.102 711.34 821.081 714.985 820.598 718.501C820.133 721.888 819.151 725.272 816.899 727.923C814.993 730.165 812.431 731.707 809.771 732.897C803.835 735.552 797.365 736.833 791.817 740.359C786.138 743.969 782.408 749.453 779.617 755.459C776.32 762.551 773.548 769.817 771.35 777.325C770.316 780.855 769.387 784.42 768.561 788.01L848.389 788.472L855.537 676.171C853.788 680.319 851.383 684.137 848.271 687.491ZM615.199 614.365C673.251 616.102 731.283 617.347 789.361 617.725C812.655 617.877 835.948 617.937 859.242 617.921L860.6 596.578L530.828 591.553L532.438 612.596C560.032 612.805 587.617 613.54 615.199 614.365Z" fill="#EA5455"/>
<path d="M860.6 555.053L857.177 515.721L543.042 515.369L530.828 554.041L860.6 555.053ZM565.651 639.261L571.65 717.704L693.284 718.407L698.192 641.28L565.651 639.261Z" fill="#EA5455"/>
<path d="M523.592 781.573V791.216H865.125V782.478L805.111 783.984L820.491 641.445L721.877 638.733L722.781 783.08L523.592 781.573Z" fill="#EA5455"/>
<path d="M572.436 645.906L577.822 717.764L687.002 718.407L691.407 647.757L572.436 645.906Z" fill="#FBF4FE"/>
<path d="M727.607 788.472H800.287L815.365 646.386L727.607 643.164V788.472ZM571.317 715.066H693.284V721.747H571.317V715.066ZM519.295 559.156V596.412C519.295 605.292 526.498 612.49 535.384 612.49C544.27 612.49 551.473 605.292 551.473 596.412V559.156H519.295Z" fill="#EA5455"/>
<path d="M551.473 559.156V596.412C551.473 605.292 558.676 612.49 567.562 612.49C576.448 612.49 583.651 605.292 583.651 596.412V559.156H551.473Z" fill="#FDF6FE"/>
<path d="M583.653 559.156V596.412C583.653 605.292 590.856 612.49 599.742 612.49C608.628 612.49 615.831 605.292 615.831 596.412V559.156H583.653Z" fill="#EA5455"/>
<path d="M615.833 559.156V596.412C615.833 605.292 623.036 612.49 631.922 612.49C640.808 612.49 648.011 605.292 648.011 596.412V559.156H615.833Z" fill="#FDF6FE"/>
<path d="M648.011 559.156V596.412C648.011 605.292 655.214 612.49 664.1 612.49C672.986 612.49 680.189 605.292 680.189 596.412V559.156H648.011Z" fill="#EA5455"/>
<path d="M680.19 559.156V596.412C680.19 605.292 687.394 612.49 696.28 612.49C705.165 612.49 712.369 605.292 712.369 596.412V559.156H680.19Z" fill="#FDF6FE"/>
<path d="M712.37 559.156V596.412C712.37 605.292 719.574 612.49 728.46 612.49C737.345 612.49 744.549 605.292 744.549 596.412V559.156H712.37Z" fill="#EA5455"/>
<path d="M744.55 559.156V596.412C744.55 605.292 751.753 612.49 760.639 612.49C769.525 612.49 776.728 605.292 776.728 596.412V559.156H744.55Z" fill="#FDF6FE"/>
<path d="M776.728 559.156V596.412C776.728 605.292 783.932 612.49 792.817 612.49C801.703 612.49 808.907 605.292 808.907 596.412V559.156H776.728ZM841.088 559.156V596.412C841.088 605.292 848.291 612.49 857.177 612.49C866.063 612.49 873.266 605.292 873.266 596.412V559.156H841.088Z" fill="#EA5455"/>
<path d="M808.908 559.156V596.412C808.908 605.292 816.111 612.49 824.997 612.49C833.883 612.49 841.086 605.292 841.086 596.412V559.156H808.908Z" fill="#FDF6FE"/>
<path d="M551.473 559.485L567.758 538.363H539.198L519.295 559.485H551.473Z" fill="#1B2E36"/>
<path d="M583.653 559.485L596.318 538.363H567.758L551.473 559.485H583.653Z" fill="#EFF1F2"/>
<path d="M615.833 559.485L624.879 538.363H596.319L583.653 559.485H615.833Z" fill="#1B2E36"/>
<path d="M648.011 559.485L653.439 538.363H624.879L615.833 559.485H648.011Z" fill="#EFF1F2"/>
<path d="M680.19 559.485L682.001 538.363H653.439L648.011 559.485H680.19Z" fill="#1B2E36"/>
<path d="M712.37 559.485L710.561 538.363H682.001L680.19 559.485H712.37Z" fill="#EFF1F2"/>
<path d="M744.55 559.485L739.122 538.363H710.561L712.37 559.485H744.55Z" fill="#1B2E36"/>
<path d="M776.728 559.485L767.682 538.363H739.122L744.55 559.485H776.728Z" fill="#EFF1F2"/>
<path d="M808.908 559.485L796.242 538.363H767.682L776.728 559.485H808.908ZM873.268 559.485L853.363 538.363H824.803L841.088 559.485H873.268Z" fill="#1B2E36"/>
<path d="M841.088 559.485L824.802 538.363H796.242L808.908 559.485H841.088Z" fill="#EFF1F2"/>
<path opacity="0.3" d="M727.607 685.367H740.273L745.249 724.242L761.307 721.747L764.249 742.775L768.998 691.696H783.7L786.187 714.071L794.783 669.998L812.737 671.161L800.287 788.472H727.607V685.367Z" fill="#1B2E36"/>
<path opacity="0.1" d="M574.049 667.434L589.4 669.342L594.376 686.548L610.435 685.443L613.376 694.75L618.125 672.142H632.827L635.314 682.047L643.91 662.54L690.578 663.054L687.002 714.975H576.734L574.049 667.434Z" fill="#1B2E36"/>
<path d="M519.295 788.472H873.268V798.45H519.295V788.472Z" fill="#1B2E36"/>
<path d="M908.051 805.179H823.441L833.829 721.747H897.663L908.051 805.179Z" fill="#FFBF9F"/>
<path d="M851.005 732.153C851.005 733.762 849.699 735.067 848.089 735.067C846.479 735.067 845.173 733.762 845.173 732.153C845.173 730.544 846.479 729.239 848.089 729.239C849.699 729.239 851.005 730.544 851.005 732.153ZM885.921 732.153C885.921 733.762 884.615 735.067 883.005 735.067C881.395 735.067 880.089 733.762 880.089 732.153C880.089 730.544 881.395 729.239 883.005 729.239C884.615 729.239 885.921 730.544 885.921 732.153Z" fill="#E36247"/>
<path d="M846.944 733.282C847.727 741.046 853.113 747.524 860.737 749.454C864.46 750.396 868.794 750.353 872.284 748.601C874.005 747.736 875.23 746.299 876.032 744.569C876.748 743.027 877.311 741.799 878.587 740.626C881.049 738.361 883.987 736.684 884.332 733.033C884.488 731.372 881.891 731.382 881.736 733.033C881.447 736.079 877.582 737.699 875.769 739.785C874.566 741.17 874.174 742.813 873.226 744.334C871.98 746.336 869.645 747.054 867.414 747.34C858.658 748.463 850.43 742.076 849.543 733.282C849.375 731.636 846.776 731.619 846.944 733.282Z" fill="#1B2E36"/>
<path d="M869.824 805.179H799.853L808.445 736.182H861.234L869.824 805.179Z" fill="#FA9C70"/>
<path d="M822.648 744.788C822.648 746.119 821.568 747.198 820.237 747.198C818.905 747.198 817.825 746.119 817.825 744.788C817.825 743.458 818.905 742.378 820.237 742.378C821.568 742.378 822.648 743.458 822.648 744.788ZM851.523 744.788C851.523 746.119 850.443 747.198 849.111 747.198C847.78 747.198 846.7 746.119 846.7 744.788C846.7 743.458 847.78 742.378 849.111 742.378C850.443 742.378 851.523 743.458 851.523 744.788Z" fill="#E36247"/>
<path d="M819.29 745.721C819.938 752.142 824.392 757.5 830.697 759.095C833.776 759.874 837.36 759.837 840.246 758.389C841.669 757.675 842.682 756.485 843.346 755.055C843.937 753.78 844.404 752.763 845.459 751.794C847.495 749.921 849.924 748.534 850.209 745.515C850.339 744.141 848.19 744.149 848.062 745.515C847.825 748.034 844.628 749.373 843.127 751.1C842.132 752.245 841.808 753.603 841.024 754.862C839.993 756.517 838.062 757.111 836.218 757.348C828.976 758.278 822.172 752.994 821.439 745.722C821.301 744.359 819.151 744.345 819.29 745.721Z" fill="#1B2E36"/>
<path d="M518.783 687.652C518.783 687.652 499.744 721.077 507.139 726.463C514.534 731.849 525.779 722.611 525.779 722.611L533.775 693.395L518.783 687.652ZM589.255 680.07C589.255 680.07 613.259 710.134 606.792 716.603C600.323 723.072 587.778 715.691 587.778 715.691L575.335 688.072L589.255 680.07Z" fill="#FF9C92"/>
<path d="M607.553 710.752C607.553 710.752 616.974 698.657 621.313 698.398C625.653 698.14 626.631 699.889 626.631 699.889C626.631 699.889 615.808 727.894 606.763 727.326C597.717 726.76 607.553 710.752 607.553 710.752Z" fill="#F28B86"/>
<path d="M578.163 797.136C573.418 798.477 532.624 809.783 505.229 806.907C475.796 803.842 473.831 790.07 472.896 783.46C471.937 776.899 479.032 767.701 494.011 763.606C495.904 763.103 498.637 762.863 501.993 762.863C523.852 762.863 578.995 768.829 584.244 769.882L578.163 797.136Z" fill="#1B2E36"/>
<path d="M524.571 806.599L508.654 806.596L507.14 795.914L520.358 793.625L524.571 806.599Z" fill="#FF9C92"/>
<path d="M514.02 808.174C512.238 810.631 509.369 812.323 506.659 813.455C503.571 814.744 500.106 812.7 499.681 809.383L498.156 797.449C497.759 794.336 500.247 791.577 503.384 791.713C506.069 791.831 509.089 792.391 511.475 793.98C513.72 795.499 515.108 797.743 515.637 800.681C516.133 803.487 515.571 805.996 514.02 808.174Z" fill="#395B64"/>
<path d="M632.907 789.448C632.691 793.495 631.804 801.472 629.406 803.651C626.986 805.807 616.752 803.795 612.389 802.933C611.957 802.838 611.622 802.765 611.311 802.717L632.907 789.448Z" fill="#1B2E36"/>
<path d="M634.104 789.473C633.672 789.951 633.242 790.431 632.81 790.887C626.674 797.209 618.334 801.449 614.474 803.197C614.402 803.221 614.33 803.269 614.258 803.294C613.636 803.558 612.821 803.796 611.838 804.036C594.245 808.347 522.701 809.306 521.909 809.306C521.526 809.33 521.166 809.187 520.807 808.851C520.687 808.732 520.544 808.611 520.423 808.444C520.399 808.396 520.352 808.371 520.328 808.323C520.112 808.035 519.896 807.676 519.68 807.27C519.68 807.245 519.656 807.221 519.656 807.197C518.002 803.915 517.091 797.497 516.636 792.922C516.589 792.492 516.565 792.06 516.517 791.676C516.468 790.982 516.421 790.359 516.397 789.808L571.5 772.325L573.873 771.582L578.474 770.121L582.237 768.924L602.252 762.576C602.323 762.552 604.552 761.81 607.907 761.067V761.044C608.291 760.972 608.699 760.899 609.129 760.804C612.533 760.108 616.799 759.462 621.065 759.438C622.192 759.438 623.317 759.462 624.42 759.559C630.987 760.11 637.003 762.576 639.161 769.043C641.846 777.114 638.898 783.989 634.104 789.473Z" fill="#395B64"/>
<path d="M555.209 654.628C528.991 655.655 508.92 752.365 516.022 761.185C539.381 790.193 605.558 769.412 609.971 760.628C618.45 743.744 585.119 653.456 555.209 654.628Z" fill="#E36247"/>
<path d="M554.525 647.505C551.111 651.057 552.816 653.681 548.358 651.021C543.9 648.36 540.96 648.053 540.795 639.898C540.63 631.743 543.94 636.627 544.437 629.467C544.935 622.306 548.213 625.633 551.534 621.991C554.855 618.348 560.355 622.638 562.532 621.495C564.71 620.352 568.011 624.777 565.786 628.213C563.562 631.65 555.968 632.628 552.462 636.181C548.955 639.734 554.525 647.505 554.525 647.505Z" fill="#1B2E36"/>
<path d="M550.119 658.179L550.863 647.625C550.863 647.625 550.615 646.237 549.449 646.178C547.642 646.087 546.631 643.041 547.569 641.591C548.894 639.549 550.586 641.34 550.586 641.34C550.586 641.34 554.628 635.225 557.689 633.991C561.842 632.316 565.837 633.706 565.837 633.706C565.837 633.706 569.451 647.329 567.177 650.771C564.905 654.213 559.861 652.864 559.861 652.864L561.686 659.753C561.686 659.753 559.978 663.987 555.809 663.412C551.641 662.84 550.119 658.179 550.119 658.179Z" fill="#FF9C92"/>
<path opacity="0.1" d="M562.495 653.11C561.743 652.751 560.968 652.436 560.23 652.163C558.531 651.532 556.789 650.83 555.02 650.337C555.699 652.681 557.289 654.729 558.028 657.065C558.797 659.49 558.986 658.935 557.132 660.841C556.273 661.722 555.199 662.353 554.044 662.844C554.577 663.105 555.148 663.323 555.809 663.414C559.978 663.989 561.686 659.753 561.686 659.753L559.861 652.864C559.863 652.866 561.035 653.168 562.495 653.11Z" fill="#EA5455"/>
<path d="M549.232 641.723C549.232 641.723 548.017 641.719 547.923 642.293C547.829 642.866 548.371 645.003 548.371 645.003C548.371 645.003 548.405 642.987 548.587 642.589C548.769 642.19 549.398 641.921 549.232 641.723Z" fill="#EF9A9E"/>
<g opacity="0.05">
<path d="M555.873 645.668C555.871 646.223 556.55 646.673 557.39 646.676C558.23 646.679 558.912 646.23 558.914 645.675C558.915 645.12 558.236 644.67 557.396 644.667C556.555 644.665 555.873 645.113 555.873 645.668Z" fill="#33133F"/>
</g>
<g opacity="0.05">
<path d="M565.135 644.183C565.134 644.738 565.813 645.189 566.653 645.191C567.493 645.192 568.175 644.745 568.176 644.19C568.177 643.636 567.498 643.184 566.658 643.181C565.817 643.18 565.136 643.627 565.135 644.183Z" fill="#33133F"/>
</g>
<path d="M562.942 645.718C563.31 645.64 563.585 645.466 563.604 645.452C563.776 645.341 563.825 645.111 563.714 644.939C563.603 644.769 563.374 644.722 563.204 644.83C563.198 644.833 562.658 645.17 562.284 644.927C562.114 644.815 561.884 644.864 561.771 645.033C561.659 645.204 561.707 645.434 561.878 645.546C562.237 645.78 562.625 645.784 562.942 645.718ZM564.618 638.611C564.655 638.602 564.69 638.589 564.724 638.569C564.743 638.561 566.462 637.577 567.858 637.398C568.059 637.367 568.203 637.185 568.176 636.982C568.17 636.934 568.154 636.887 568.129 636.845C568.105 636.803 568.073 636.766 568.034 636.736C567.995 636.707 567.951 636.685 567.904 636.673C567.857 636.66 567.808 636.657 567.76 636.664C566.222 636.872 564.432 637.885 564.356 637.927C564.179 638.028 564.117 638.254 564.218 638.433C564.258 638.501 564.317 638.555 564.389 638.587C564.461 638.618 564.541 638.627 564.618 638.611ZM565.855 640.586C565.924 640.993 566.279 641.274 566.651 641.212C567.024 641.151 567.269 640.77 567.201 640.363C567.133 639.955 566.776 639.674 566.405 639.737C566.033 639.798 565.787 640.178 565.855 640.586ZM559.536 638.98C559.677 638.95 559.795 638.839 559.823 638.689C559.841 638.592 559.821 638.492 559.766 638.411C559.711 638.329 559.625 638.273 559.529 638.254C559.444 638.238 557.424 637.855 555.9 638.159C555.715 638.169 555.57 638.393 555.61 638.595C555.619 638.643 555.638 638.688 555.665 638.728C555.692 638.769 555.727 638.804 555.767 638.831C555.808 638.857 555.853 638.876 555.901 638.885C555.949 638.895 555.998 638.894 556.046 638.885C557.424 638.609 559.37 638.978 559.39 638.983C559.439 638.991 559.489 638.991 559.536 638.98ZM558.972 641.255C559.04 641.662 558.793 642.043 558.422 642.105C558.05 642.166 557.694 641.885 557.626 641.479C557.558 641.071 557.805 640.691 558.176 640.63C558.547 640.566 558.904 640.847 558.972 641.255ZM564.454 648.362C564.522 648.769 564.275 649.15 563.903 649.211C563.532 649.272 563.175 648.991 563.107 648.585C563.039 648.177 563.286 647.797 563.657 647.734C564.029 647.673 564.386 647.954 564.454 648.362Z" fill="#1B2E36"/>
<path d="M553.116 639.055C551.862 638.403 551.46 643.396 551.46 643.396C551.46 643.396 550.832 641.804 550.498 641.169C550.164 640.535 549.812 641.274 548.757 639.005C547.701 636.735 545.448 636.412 550.357 631.915C555.266 627.417 552.678 626.46 558.973 627.02C565.269 627.581 568.223 626.238 568.69 628.98C569.159 631.721 567.025 635.063 564.814 634.603C562.603 634.143 565.169 634.045 560.154 635.522C555.138 636.997 555.155 640.113 553.116 639.055Z" fill="#1B2E36"/>
<path d="M553.842 730.635H653.439V801.614H553.842V730.635Z" fill="#AE3B2A"/>
<path d="M646.804 739.8L653.439 730.635V801.614L646.804 810.778V739.8ZM547.207 739.8L553.842 730.635V801.614L547.207 810.778V739.8Z" fill="#E36247"/>
<path d="M588.956 747.956C588.956 747.956 566.133 738.015 570.515 724.841C573.479 715.932 579.419 717.35 583.312 723.512C583.312 723.512 585.25 712.238 595.112 716.976C604.973 721.715 596.473 742.599 588.956 747.956Z" fill="#FFBF9F"/>
<path d="M586.922 766.124C586.922 766.124 564.098 756.182 568.481 743.009C571.446 734.1 577.386 735.517 581.278 741.68C581.278 741.68 583.216 730.405 593.078 735.144C602.939 739.883 594.441 760.766 586.922 766.124Z" fill="#FA9C70"/>
<path d="M607.987 747.161C607.987 747.161 588.321 738.595 592.098 727.245C594.652 719.57 599.77 720.79 603.124 726.099C603.124 726.099 604.794 716.385 613.292 720.468C621.788 724.552 614.466 742.544 607.987 747.161Z" fill="#AE3B2A"/>
<path d="M603.506 763.698C603.506 763.698 586.728 745.316 596.108 735.077C602.452 728.151 607.296 731.866 608.333 739.08C608.333 739.08 614.707 729.576 621.775 737.924C628.845 746.271 612.558 761.871 603.506 763.698Z" fill="#FFBF9F"/>
<path d="M566.954 746.117C566.954 746.117 549.692 734.52 555.277 724.351C559.053 717.476 563.721 719.532 565.993 725.181C565.993 725.181 569.282 716.206 576.674 721.582C584.063 726.959 573.938 742.844 566.954 746.117Z" fill="#FA9C70"/>
<path d="M584.298 724.397L590.1 731.848L599.533 731.295L594.234 739.112L597.674 747.907L588.597 745.287L581.291 751.273L580.98 741.837L573.023 736.744L581.908 733.532L584.298 724.397Z" fill="white"/>
<path d="M606.137 727.474L610.29 732.808L617.042 732.413L613.249 738.008L615.712 744.303L609.213 742.427L603.985 746.712L603.762 739.957L598.066 736.312L604.427 734.013L606.137 727.474Z" fill="#FA9C70"/>
<path d="M608.817 743.791C608.817 743.791 593.557 724.131 603.725 714.671C610.602 708.274 615.133 712.362 615.592 719.636C615.592 719.636 622.703 710.67 629.084 719.555C635.463 728.438 617.984 742.692 608.817 743.791Z" fill="#FFBF9F"/>
<path d="M598.314 758.761C598.314 758.761 583.055 739.101 593.222 729.641C600.099 723.244 604.63 727.332 605.089 734.605C605.089 734.605 612.2 725.639 618.581 734.524C624.961 743.408 607.482 757.662 598.314 758.761Z" fill="#FA9C70"/>
<path d="M625.898 752.212C625.898 752.212 612.75 735.273 621.511 727.122C627.435 721.609 631.34 725.132 631.735 731.399C631.735 731.399 637.863 723.674 643.36 731.329C648.858 738.985 633.797 751.265 625.898 752.212Z" fill="#AE3B2A"/>
<path d="M614.03 764.577C614.03 764.577 608.127 740.407 621.274 735.916C630.164 732.879 632.632 738.459 630.081 745.286C630.081 745.286 640.235 740.001 642.432 750.712C644.629 761.425 622.851 767.312 614.03 764.577Z" fill="#FFBF9F"/>
<path d="M616.033 720.885L617.549 730.205L626.092 734.239L617.691 738.56L616.49 747.925L609.782 741.276L600.498 743.03L604.752 734.6L600.215 726.318L609.553 727.757L616.033 720.885Z" fill="white"/>
<path d="M633.721 734.05L634.806 740.72L640.921 743.608L634.907 746.701L634.048 753.405L629.246 748.645L622.601 749.9L625.646 743.867L622.399 737.939L629.082 738.969L633.721 734.05Z" fill="#FA9C70"/>
<path opacity="0.2" d="M559.699 739.807L556.971 736.589H586.854L585.948 737.989L644.54 736.595L643.685 740.003L559.699 739.807Z" fill="#EA5455"/>
<path d="M547.207 739.8H646.804V810.777H547.207V739.8Z" fill="#FA9C70"/>
<path d="M544.828 659.979C544.828 659.979 510.624 682.285 514.58 690.837C518.535 699.388 529.531 700.637 529.531 700.637L544.828 659.979ZM568.959 659.979C568.959 659.979 603.164 682.285 599.208 690.837C595.253 699.388 584.257 700.637 584.257 700.637L568.959 659.979Z" fill="#E36247"/>
<path d="M557.928 693.324C557.928 693.324 553.421 692.977 552.492 693.884C550.336 695.99 549.876 699.009 550.248 699.888C552.579 697.107 557.928 693.324 557.928 693.324Z" fill="#FF9C92"/>
<path opacity="0.2" d="M552.218 695.818C552.242 695.224 552.367 694.629 552.348 694.034C550.319 696.132 549.884 699.029 550.247 699.888C550.856 699.161 551.673 698.364 552.546 697.586C552.338 697.016 552.193 696.433 552.218 695.818Z" fill="white"/>
<path d="M617.306 682.011H562.151C557.001 682.011 552.826 686.183 552.826 691.329C552.826 696.475 557.001 700.647 562.151 700.647H617.306C622.456 700.647 626.631 696.475 626.631 691.329C626.631 686.183 622.456 682.011 617.306 682.011Z" fill="#FA9C70"/>
<path d="M571.157 695.856C569.255 695.856 567.768 694.912 567.706 693.124H569.999C570.062 693.804 570.491 694.131 571.095 694.131C571.724 694.131 572.128 693.816 572.128 693.3C572.128 691.663 567.706 692.545 567.731 689.41C567.731 687.735 569.104 686.804 570.957 686.804C572.885 686.804 574.183 687.761 574.271 689.448H571.94C571.902 688.881 571.5 688.54 570.92 688.529C570.403 688.516 570.013 688.78 570.013 689.334C570.013 690.871 574.386 690.178 574.386 693.136C574.383 694.622 573.225 695.856 571.157 695.856ZM576.492 686.929H583.334V688.654H580.991V695.768H578.837V688.654H576.493V686.929H576.492ZM589.865 695.856C587.359 695.856 585.317 693.981 585.317 691.324C585.317 688.667 587.357 686.804 589.865 686.804C592.385 686.804 594.389 688.667 594.389 691.324C594.389 693.979 592.374 695.856 589.865 695.856ZM589.865 693.891C591.277 693.891 592.196 692.871 592.196 691.322C592.196 689.749 591.277 688.753 589.865 688.753C588.429 688.753 587.522 689.747 587.522 691.322C587.522 692.871 588.43 693.891 589.865 693.891ZM600.469 686.929C602.636 686.929 603.721 688.176 603.721 689.711C603.721 690.818 603.115 691.865 601.755 692.267L603.796 695.767H601.365L599.526 692.43H599.009V695.767H596.854V686.927H600.469V686.929ZM600.343 688.717H599.007V690.908H600.343C601.149 690.908 601.528 690.492 601.528 689.8C601.528 689.144 601.15 688.717 600.343 688.717ZM611.751 688.654H608.487V690.442H611.373V692.103H608.487V694.043H611.751V695.768H606.333V686.929H611.751V688.654Z" fill="#FFBF9F"/>
<path d="M558.496 706.549C559.304 706.144 560.092 705.696 560.792 705.21L560.795 705.213C560.798 705.21 560.798 705.21 560.802 705.21C560.838 705.187 561.032 705.081 561.314 704.92L561.317 704.917C561.54 704.79 561.805 704.623 562.087 704.437C562.087 704.437 565.378 702.56 565.236 701.43C565.094 700.3 564.245 700.162 564.245 700.162C564.245 700.162 564.949 699.31 564.4 698.377C563.853 697.444 563.066 697.545 563.066 697.545C563.066 697.545 563.735 696.776 563.117 695.714C562.497 694.652 561.376 694.683 561.376 694.683C561.376 694.683 562.314 693.461 560.592 692.644C558.878 691.832 556.746 693.631 556.647 693.695C556.219 693.958 555.816 694.236 555.438 694.517C555.335 694.595 550.308 699.419 550.222 699.514C544.116 706.376 497.406 709.059 507.143 726.46C515.543 741.472 553.462 707.567 553.462 707.567C553.462 707.567 555.463 708.063 558.496 706.549Z" fill="#FF9C92"/>
<path opacity="0.2" d="M560.792 705.21L560.795 705.213C560.798 705.21 560.798 705.21 560.802 705.21C560.838 705.187 561.032 705.081 561.314 704.92L561.317 704.917C561.54 704.79 561.805 704.623 562.087 704.437C562.087 704.437 565.378 702.56 565.236 701.43C565.094 700.3 564.245 700.162 564.245 700.162C564.245 700.162 564.949 699.31 564.4 698.377C563.853 697.444 563.066 697.545 563.066 697.545C563.066 697.545 563.735 696.777 563.117 695.714C562.497 694.652 561.376 694.684 561.376 694.684C561.376 694.684 562.314 693.461 560.592 692.644C559.975 692.352 559.306 692.4 558.696 692.58C559.363 692.845 560.016 693.323 560.352 693.947C560.438 694.107 560.502 694.282 560.525 694.463C560.552 694.671 560.519 694.879 560.526 695.088C560.542 695.54 560.916 695.797 561.23 696.072C561.635 696.429 561.996 696.816 562.156 697.343C562.277 697.738 562.276 698.153 562.303 698.562C562.331 698.99 562.424 699.408 562.696 699.751C562.956 700.079 563.211 700.379 563.337 700.787C563.556 701.491 563.283 702.187 562.838 702.738C562.532 703.12 562.146 703.426 561.773 703.74C561.285 704.148 560.791 704.547 560.296 704.946C559.449 705.629 558.617 706.313 557.693 706.89C557.956 706.793 558.223 706.684 558.497 706.546C559.304 706.146 560.09 705.696 560.792 705.21Z" fill="white"/>
<path d="M619.261 706.006C615.329 703.784 613.415 697.13 614.944 695.855C615.66 695.259 617.353 697.239 618.989 699.524C617.091 696.657 615.376 693.275 616.425 693.015C617.231 692.815 619.597 696.189 621.313 698.397C620.275 696.775 618.069 693.062 618.72 692.529C619.548 691.851 622.113 695.046 623.537 697.296C622.781 695.899 621.525 693.368 622.186 692.977C622.771 692.629 623.692 692.996 625.471 695.834C626.51 697.489 626.794 697.238 627.117 698.084C627.367 698.736 627.698 699.385 627.641 700.01C627.366 703.017 620.707 706.824 619.261 706.006Z" fill="#FF9C92"/>
<path opacity="0.2" d="M622.426 693.146C622.151 693.38 622.524 694.459 622.637 694.523C622.637 694.523 623.444 694.064 623.545 693.924C623.647 693.783 622.701 692.911 622.426 693.146ZM618.849 692.597C618.574 692.832 618.948 693.911 619.061 693.975C619.061 693.975 619.868 693.516 619.969 693.376C620.07 693.234 619.125 692.363 618.849 692.597ZM616.425 693.346C616.149 693.58 616.523 694.659 616.635 694.723C616.635 694.723 617.443 694.265 617.544 694.124C617.647 693.982 616.701 693.111 616.425 693.346ZM615.035 696.228C614.76 696.463 615.133 697.542 615.246 697.604C615.246 697.604 616.053 697.146 616.154 697.005C616.256 696.866 615.31 695.994 615.035 696.228Z" fill="white"/>
</g>
<defs>
<clipPath id="clip0_26_2">
<rect width="1440" height="830" fill="white"/>
</clipPath>
</defs>
</svg>
