<svg width="1440" height="912" viewBox="0 0 1440 912" fill="none" xmlns="http://www.w3.org/2000/svg">
<g clip-path="url(#clip0_26_2)">
<rect width="1440" height="912" fill="#F8FAFB"/>
<rect x="-40.4355" y="-13" width="97.6105" height="1128" fill="#1B2E36"/>
<rect width="96.1053" height="1115" transform="matrix(-1 0 0 1 1474.74 0)" fill="#1B2E36"/>
<path d="M927.717 470.086C871.522 406.997 800.372 443.233 744.036 442.629C718.192 385.941 587.563 349.5 523.42 445.634C481.031 505.781 515.337 602.827 619.273 614.262C640.273 677.07 718.211 722.193 817.73 674.615C943.009 610.152 963.796 510.592 927.717 470.086Z" fill="#F6F6F6"/>
<path d="M947.191 604.871C947.191 604.871 928.44 615.961 922.581 624.339C916.73 632.699 907.754 636.093 907.754 636.093L898.973 631.935L899.706 641.385C881.531 648.896 863.64 637.976 859.417 635.087C858.797 634.67 858.469 634.429 858.469 634.429C856.941 610.228 888.055 604.687 908.946 600.427C929.807 596.174 947.191 604.871 947.191 604.871Z" fill="#DBC6CE"/>
<path opacity="0.2" d="M925.245 607.831L903.607 619.607L900.482 616.552L897.116 619.857C897.116 619.857 869.48 626.17 859.3 634.994L869.378 628.465L886.107 620.223L899.834 615.054C899.834 615.056 917.353 609.302 925.245 607.831Z" fill="#EA5455"/>
<path opacity="0.1" d="M947.191 604.871C947.191 604.871 928.44 615.962 922.581 624.34C916.731 632.699 907.754 636.093 907.754 636.093L898.973 631.935L899.706 641.385C881.531 648.896 863.64 637.976 859.417 635.088C860.019 635.065 860.424 635.075 860.424 635.075C889.557 642.57 893.835 635.038 893.835 635.038L896.061 623.471L904.828 626.235C904.828 626.235 913.982 621.345 919.331 614.924C924.669 608.521 947.191 604.871 947.191 604.871Z" fill="white"/>
<path d="M925.234 607.76C913.275 610.279 901.528 613.796 890.111 618.185C878.76 622.688 867.6 628.033 857.851 635.56L856.013 636.952C855.395 637.409 854.859 637.969 854.278 638.471L850.855 641.574C848.723 643.768 846.555 645.926 844.48 648.174C842.741 650.039 841.04 651.937 839.346 653.843C839.609 654.218 839.879 654.588 840.154 654.955C841.904 652.98 843.664 651.016 845.462 649.086C847.497 646.818 849.626 644.638 851.717 642.423L855.038 639.33C855.603 638.828 856.121 638.27 856.724 637.811L858.519 636.414C868.057 628.876 879.101 623.424 890.361 618.814C901.673 614.272 913.356 610.585 925.261 607.892L925.234 607.76Z" fill="#F6F6F6"/>
<path d="M922.423 552.737C922.423 552.737 913.422 569.215 912.776 578.004C912.128 586.775 906.974 593.244 906.974 593.244L898.632 594.031L903.344 600.711C893.189 614.282 875.115 614.072 870.711 613.792C870.067 613.755 869.718 613.721 869.718 613.721C857.909 596.461 878.521 578.648 892.121 566.29C905.705 553.95 922.423 552.737 922.423 552.737Z" fill="#E3E0E1"/>
<path opacity="0.2" d="M907.467 564.596L896.628 582.854L892.966 581.968L891.929 585.899C891.929 585.899 874.235 602.75 870.585 613.773L875.172 604.497L883.931 591.021L891.824 581.143C891.824 581.145 902.267 569.164 907.467 564.596Z" fill="#EA5455"/>
<path opacity="0.1" d="M922.423 552.737C922.423 552.737 913.422 569.215 912.776 578.004C912.128 586.775 906.974 593.244 906.974 593.244L898.632 594.031L903.344 600.711C893.189 614.282 875.115 614.072 870.711 613.792C871.147 613.509 871.452 613.339 871.452 613.339C896.346 606.06 896.192 598.594 896.192 598.594L892.74 589.041L900.457 587.228C900.457 587.228 905.082 579.573 906.213 572.457C907.343 565.363 922.423 552.737 922.423 552.737Z" fill="white"/>
<path d="M907.427 564.549C899.677 571.685 892.524 579.463 886 587.746C879.576 596.083 873.664 604.959 869.759 614.833L869.012 616.673C868.756 617.285 868.605 617.934 868.396 618.563L867.228 622.37C866.616 624.935 865.962 627.489 865.416 630.069C864.95 632.216 864.527 634.373 864.113 636.53C864.474 636.692 864.837 636.848 865.203 636.999C865.628 634.765 866.066 632.533 866.548 630.311C867.055 627.733 867.67 625.182 868.244 622.619L869.34 618.864C869.536 618.242 869.674 617.602 869.918 616.995L870.632 615.169C874.375 605.383 880.153 596.476 886.464 588.101C892.841 579.752 899.871 571.875 907.507 564.634L907.427 564.549Z" fill="#F6F6F6"/>
<path d="M496.655 621.793C496.655 621.793 505.655 638.271 506.302 647.06C506.95 655.831 512.104 662.3 512.104 662.3L520.446 663.087L515.734 669.767C525.888 683.338 543.963 683.128 548.367 682.848C549.01 682.811 549.36 682.777 549.36 682.777C561.169 665.517 540.557 647.704 526.957 635.346C513.372 623.006 496.655 621.793 496.655 621.793Z" fill="#E3E0E1"/>
<path opacity="0.2" d="M511.61 633.653L522.448 651.912L526.11 651.026L527.147 654.956C527.147 654.956 544.841 671.807 548.492 682.831L543.904 673.554L535.145 660.078L527.253 650.201C527.253 650.201 516.809 638.22 511.61 633.653Z" fill="#EA5455"/>
<path opacity="0.1" d="M496.655 621.793C496.655 621.793 505.655 638.271 506.302 647.06C506.95 655.831 512.104 662.3 512.104 662.3L520.446 663.087L515.734 669.767C525.888 683.338 543.963 683.128 548.367 682.848C547.93 682.565 547.626 682.395 547.626 682.395C522.732 675.116 522.886 667.65 522.886 667.65L526.337 658.097L518.621 656.284C518.621 656.284 513.996 648.629 512.864 641.513C511.735 634.419 496.655 621.793 496.655 621.793Z" fill="white"/>
<path d="M511.651 633.605C519.401 640.741 526.553 648.519 533.077 656.802C539.502 665.139 545.414 674.015 549.319 683.889L550.066 685.729C550.322 686.341 550.473 686.99 550.682 687.62L551.85 691.427C552.461 693.992 553.116 696.547 553.661 699.127C554.128 701.274 554.551 703.431 554.965 705.588C554.604 705.75 554.241 705.906 553.875 706.056C553.45 703.823 553.012 701.59 552.53 699.37C552.023 696.792 551.408 694.241 550.834 691.677L549.738 687.923C549.542 687.301 549.404 686.661 549.16 686.054L548.446 684.228C544.703 674.441 538.925 665.535 532.614 657.16C526.237 648.81 519.207 640.934 511.571 633.693L511.651 633.605Z" fill="#F6F6F6"/>
<path d="M937.228 636.239C935.422 639.681 932.602 640.667 930.044 640.146C927.491 639.491 924.454 637.935 922.975 635.887C921.446 634.044 924.123 629.772 930.242 628.652C936.476 627.698 939.192 632.85 937.228 636.239ZM525.138 610.391C523.332 613.833 520.513 614.818 517.955 614.297C515.401 613.643 512.364 612.086 510.885 610.039C509.356 608.196 512.033 603.924 518.152 602.804C524.388 601.85 527.102 607 525.138 610.391Z" fill="#E3E0E1"/>
<path d="M550.829 507.553L565.758 702.725L868.388 704.472L880.602 512.578L550.829 507.553Z" fill="#DBC6CE"/>
<path opacity="0.2" d="M868.271 603.491C865.783 606.174 863.022 608.491 859.885 610.377C856.788 612.24 853.518 613.8 850.434 615.689C847.042 617.766 843.886 620.17 842.402 623.992C841.102 627.34 841.081 630.985 840.598 634.501C840.133 637.888 839.151 641.272 836.899 643.923C834.993 646.165 832.431 647.707 829.771 648.897C823.835 651.552 817.365 652.833 811.817 656.359C806.138 659.969 802.408 665.453 799.617 671.459C796.32 678.551 793.548 685.817 791.35 693.325C790.316 696.855 789.387 700.42 788.561 704.01L868.389 704.472L875.537 592.171C873.788 596.319 871.383 600.137 868.271 603.491ZM635.199 530.365C693.251 532.102 751.283 533.347 809.361 533.725C832.655 533.877 855.948 533.937 879.242 533.921L880.6 512.578L550.828 507.553L552.438 528.596C580.032 528.805 607.617 529.54 635.199 530.365Z" fill="#EA5455"/>
<path d="M880.6 471.053L877.177 431.721L563.042 431.369L550.828 470.041L880.6 471.053ZM585.651 555.261L591.65 633.704L713.284 634.407L718.192 557.28L585.651 555.261Z" fill="#EA5455"/>
<path d="M543.592 697.573V707.216H885.125V698.478L825.111 699.984L840.491 557.445L741.877 554.733L742.781 699.08L543.592 697.573Z" fill="#EA5455"/>
<path d="M592.436 561.906L597.822 633.764L707.002 634.407L711.407 563.757L592.436 561.906Z" fill="#FBF4FE"/>
<path d="M747.607 704.472H820.287L835.365 562.386L747.607 559.164V704.472ZM591.317 631.066H713.284V637.747H591.317V631.066ZM539.295 475.156V512.412C539.295 521.292 546.498 528.49 555.384 528.49C564.27 528.49 571.473 521.292 571.473 512.412V475.156H539.295Z" fill="#EA5455"/>
<path d="M571.473 475.156V512.412C571.473 521.292 578.676 528.49 587.562 528.49C596.448 528.49 603.651 521.292 603.651 512.412V475.156H571.473Z" fill="#FDF6FE"/>
<path d="M603.653 475.156V512.412C603.653 521.292 610.856 528.49 619.742 528.49C628.628 528.49 635.831 521.292 635.831 512.412V475.156H603.653Z" fill="#EA5455"/>
<path d="M635.833 475.156V512.412C635.833 521.292 643.036 528.49 651.922 528.49C660.808 528.49 668.011 521.292 668.011 512.412V475.156H635.833Z" fill="#FDF6FE"/>
<path d="M668.011 475.156V512.412C668.011 521.292 675.214 528.49 684.1 528.49C692.986 528.49 700.189 521.292 700.189 512.412V475.156H668.011Z" fill="#EA5455"/>
<path d="M700.19 475.156V512.412C700.19 521.292 707.394 528.49 716.28 528.49C725.165 528.49 732.369 521.292 732.369 512.412V475.156H700.19Z" fill="#FDF6FE"/>
<path d="M732.37 475.156V512.412C732.37 521.292 739.574 528.49 748.46 528.49C757.345 528.49 764.549 521.292 764.549 512.412V475.156H732.37Z" fill="#EA5455"/>
<path d="M764.55 475.156V512.412C764.55 521.292 771.753 528.49 780.639 528.49C789.525 528.49 796.728 521.292 796.728 512.412V475.156H764.55Z" fill="#FDF6FE"/>
<path d="M796.728 475.156V512.412C796.728 521.292 803.932 528.49 812.817 528.49C821.703 528.49 828.907 521.292 828.907 512.412V475.156H796.728ZM861.088 475.156V512.412C861.088 521.292 868.291 528.49 877.177 528.49C886.063 528.49 893.266 521.292 893.266 512.412V475.156H861.088Z" fill="#EA5455"/>
<path d="M828.908 475.156V512.412C828.908 521.292 836.111 528.49 844.997 528.49C853.883 528.49 861.086 521.292 861.086 512.412V475.156H828.908Z" fill="#FDF6FE"/>
<path d="M571.473 475.485L587.758 454.363H559.198L539.295 475.485H571.473Z" fill="#1B2E36"/>
<path d="M603.653 475.485L616.318 454.363H587.758L571.473 475.485H603.653Z" fill="#EFF1F2"/>
<path d="M635.833 475.485L644.879 454.363H616.319L603.653 475.485H635.833Z" fill="#1B2E36"/>
<path d="M668.011 475.485L673.439 454.363H644.879L635.833 475.485H668.011Z" fill="#EFF1F2"/>
<path d="M700.19 475.485L702.001 454.363H673.439L668.011 475.485H700.19Z" fill="#1B2E36"/>
<path d="M732.37 475.485L730.561 454.363H702.001L700.19 475.485H732.37Z" fill="#EFF1F2"/>
<path d="M764.55 475.485L759.122 454.363H730.561L732.37 475.485H764.55Z" fill="#1B2E36"/>
<path d="M796.728 475.485L787.682 454.363H759.122L764.55 475.485H796.728Z" fill="#EFF1F2"/>
<path d="M828.908 475.485L816.242 454.363H787.682L796.728 475.485H828.908ZM893.268 475.485L873.363 454.363H844.803L861.088 475.485H893.268Z" fill="#1B2E36"/>
<path d="M861.088 475.485L844.802 454.363H816.242L828.908 475.485H861.088Z" fill="#EFF1F2"/>
<path opacity="0.3" d="M747.607 601.367H760.273L765.249 640.242L781.307 637.747L784.249 658.775L788.998 607.696H803.7L806.187 630.071L814.783 585.998L832.737 587.161L820.287 704.472H747.607V601.367Z" fill="#1B2E36"/>
<path opacity="0.1" d="M594.049 583.434L609.4 585.342L614.376 602.548L630.435 601.443L633.376 610.75L638.125 588.142H652.827L655.314 598.047L663.91 578.54L710.578 579.054L707.002 630.975H596.734L594.049 583.434Z" fill="#1B2E36"/>
<path d="M539.295 704.472H893.268V714.45H539.295V704.472Z" fill="#1B2E36"/>
<path d="M928.051 721.179H843.441L853.829 637.747H917.663L928.051 721.179Z" fill="#FFBF9F"/>
<path d="M871.005 648.153C871.005 649.762 869.699 651.067 868.089 651.067C866.479 651.067 865.173 649.762 865.173 648.153C865.173 646.544 866.479 645.239 868.089 645.239C869.699 645.239 871.005 646.544 871.005 648.153ZM905.921 648.153C905.921 649.762 904.615 651.067 903.005 651.067C901.395 651.067 900.089 649.762 900.089 648.153C900.089 646.544 901.395 645.239 903.005 645.239C904.615 645.239 905.921 646.544 905.921 648.153Z" fill="#E36247"/>
<path d="M866.944 649.282C867.727 657.046 873.113 663.524 880.737 665.454C884.46 666.396 888.794 666.353 892.284 664.601C894.005 663.736 895.23 662.299 896.032 660.569C896.748 659.027 897.311 657.799 898.587 656.626C901.049 654.361 903.987 652.684 904.332 649.033C904.488 647.372 901.891 647.382 901.736 649.033C901.447 652.079 897.582 653.699 895.769 655.785C894.566 657.17 894.174 658.813 893.226 660.334C891.98 662.336 889.645 663.054 887.414 663.34C878.658 664.463 870.43 658.076 869.543 649.282C869.375 647.636 866.776 647.619 866.944 649.282Z" fill="#1B2E36"/>
<path d="M889.824 721.179H819.853L828.445 652.182H881.234L889.824 721.179Z" fill="#FA9C70"/>
<path d="M842.648 660.788C842.648 662.119 841.568 663.198 840.237 663.198C838.905 663.198 837.825 662.119 837.825 660.788C837.825 659.458 838.905 658.378 840.237 658.378C841.568 658.378 842.648 659.458 842.648 660.788ZM871.523 660.788C871.523 662.119 870.443 663.198 869.111 663.198C867.78 663.198 866.7 662.119 866.7 660.788C866.7 659.458 867.78 658.378 869.111 658.378C870.443 658.378 871.523 659.458 871.523 660.788Z" fill="#E36247"/>
<path d="M839.29 661.721C839.938 668.142 844.392 673.5 850.697 675.095C853.776 675.874 857.36 675.837 860.246 674.389C861.669 673.675 862.682 672.485 863.346 671.055C863.937 669.78 864.404 668.763 865.459 667.794C867.495 665.921 869.924 664.534 870.209 661.515C870.339 660.141 868.19 660.149 868.062 661.515C867.825 664.034 864.628 665.373 863.127 667.1C862.132 668.245 861.808 669.603 861.024 670.862C859.993 672.517 858.062 673.111 856.218 673.348C848.976 674.278 842.172 668.994 841.439 661.722C841.301 660.359 839.151 660.345 839.29 661.721Z" fill="#1B2E36"/>
<path d="M538.783 603.652C538.783 603.652 519.744 637.077 527.139 642.463C534.534 647.849 545.779 638.611 545.779 638.611L553.775 609.395L538.783 603.652ZM609.255 596.07C609.255 596.07 633.259 626.134 626.792 632.603C620.323 639.072 607.778 631.691 607.778 631.691L595.335 604.072L609.255 596.07Z" fill="#FF9C92"/>
<path d="M627.553 626.752C627.553 626.752 636.974 614.657 641.313 614.398C645.653 614.14 646.631 615.889 646.631 615.889C646.631 615.889 635.808 643.894 626.763 643.326C617.717 642.76 627.553 626.752 627.553 626.752Z" fill="#F28B86"/>
<path d="M598.163 713.136C593.418 714.477 552.624 725.783 525.229 722.907C495.796 719.842 493.831 706.07 492.896 699.46C491.937 692.899 499.032 683.701 514.011 679.606C515.904 679.103 518.637 678.863 521.993 678.863C543.852 678.863 598.995 684.829 604.244 685.882L598.163 713.136Z" fill="#1B2E36"/>
<path d="M544.571 722.599L528.654 722.596L527.14 711.914L540.358 709.625L544.571 722.599Z" fill="#FF9C92"/>
<path d="M534.02 724.174C532.238 726.631 529.369 728.323 526.659 729.455C523.571 730.744 520.106 728.7 519.681 725.383L518.156 713.449C517.759 710.336 520.247 707.577 523.384 707.713C526.069 707.831 529.089 708.391 531.475 709.98C533.72 711.499 535.108 713.743 535.637 716.681C536.133 719.487 535.571 721.996 534.02 724.174Z" fill="#395B64"/>
<path d="M652.907 705.448C652.691 709.495 651.804 717.472 649.406 719.651C646.986 721.807 636.752 719.795 632.389 718.933C631.957 718.838 631.622 718.765 631.311 718.717L652.907 705.448Z" fill="#1B2E36"/>
<path d="M654.104 705.473C653.672 705.951 653.242 706.431 652.81 706.887C646.674 713.209 638.334 717.449 634.474 719.197C634.402 719.221 634.33 719.269 634.258 719.294C633.636 719.558 632.821 719.796 631.838 720.036C614.245 724.347 542.701 725.306 541.909 725.306C541.526 725.33 541.166 725.187 540.807 724.851C540.687 724.732 540.544 724.611 540.423 724.444C540.399 724.396 540.352 724.371 540.328 724.323C540.112 724.035 539.896 723.676 539.68 723.27C539.68 723.245 539.656 723.221 539.656 723.197C538.002 719.915 537.091 713.497 536.636 708.922C536.589 708.492 536.565 708.06 536.517 707.676C536.468 706.982 536.421 706.359 536.397 705.808L591.5 688.325L593.873 687.582L598.474 686.121L602.237 684.924L622.252 678.576C622.323 678.552 624.552 677.81 627.907 677.067V677.044C628.291 676.972 628.699 676.899 629.129 676.804C632.533 676.108 636.799 675.462 641.065 675.438C642.192 675.438 643.317 675.462 644.42 675.559C650.987 676.11 657.003 678.576 659.161 685.043C661.846 693.114 658.898 699.989 654.104 705.473Z" fill="#395B64"/>
<path d="M575.209 570.628C548.991 571.655 528.92 668.365 536.022 677.185C559.381 706.193 625.558 685.412 629.971 676.628C638.45 659.744 605.119 569.456 575.209 570.628Z" fill="#E36247"/>
<path d="M574.525 563.505C571.111 567.057 572.816 569.681 568.358 567.021C563.9 564.36 560.96 564.053 560.795 555.898C560.63 547.743 563.94 552.627 564.437 545.467C564.935 538.306 568.213 541.633 571.534 537.991C574.855 534.348 580.355 538.638 582.532 537.495C584.71 536.352 588.011 540.777 585.786 544.213C583.562 547.65 575.968 548.628 572.462 552.181C568.955 555.734 574.525 563.505 574.525 563.505Z" fill="#1B2E36"/>
<path d="M570.119 574.179L570.863 563.625C570.863 563.625 570.615 562.237 569.449 562.178C567.642 562.087 566.631 559.041 567.569 557.591C568.894 555.549 570.586 557.34 570.586 557.34C570.586 557.34 574.628 551.225 577.689 549.991C581.842 548.316 585.837 549.706 585.837 549.706C585.837 549.706 589.451 563.329 587.177 566.771C584.905 570.213 579.861 568.864 579.861 568.864L581.686 575.753C581.686 575.753 579.978 579.987 575.809 579.412C571.641 578.84 570.119 574.179 570.119 574.179Z" fill="#FF9C92"/>
<path opacity="0.1" d="M582.495 569.11C581.743 568.751 580.968 568.436 580.23 568.163C578.531 567.532 576.789 566.83 575.02 566.337C575.699 568.681 577.289 570.729 578.028 573.065C578.797 575.49 578.986 574.935 577.132 576.841C576.273 577.722 575.199 578.353 574.044 578.844C574.577 579.105 575.148 579.323 575.809 579.414C579.978 579.989 581.686 575.753 581.686 575.753L579.861 568.864C579.863 568.866 581.035 569.168 582.495 569.11Z" fill="#EA5455"/>
<path d="M569.232 557.723C569.232 557.723 568.017 557.719 567.923 558.293C567.829 558.866 568.371 561.003 568.371 561.003C568.371 561.003 568.405 558.987 568.587 558.589C568.769 558.19 569.398 557.921 569.232 557.723Z" fill="#EF9A9E"/>
<g opacity="0.05">
<path d="M575.873 561.668C575.871 562.223 576.55 562.673 577.39 562.676C578.23 562.679 578.912 562.23 578.914 561.675C578.915 561.12 578.236 560.67 577.396 560.667C576.555 560.665 575.873 561.113 575.873 561.668Z" fill="#33133F"/>
</g>
<g opacity="0.05">
<path d="M585.135 560.183C585.134 560.738 585.813 561.189 586.653 561.191C587.493 561.192 588.175 560.745 588.176 560.19C588.177 559.636 587.498 559.184 586.658 559.181C585.817 559.18 585.136 559.627 585.135 560.183Z" fill="#33133F"/>
</g>
<path d="M582.942 561.718C583.31 561.639 583.585 561.466 583.604 561.452C583.776 561.341 583.825 561.111 583.714 560.939C583.603 560.769 583.374 560.722 583.204 560.83C583.198 560.833 582.658 561.169 582.284 560.927C582.114 560.814 581.884 560.864 581.771 561.033C581.659 561.204 581.707 561.434 581.878 561.546C582.237 561.78 582.625 561.784 582.942 561.718ZM584.618 554.61C584.655 554.602 584.69 554.589 584.724 554.569C584.743 554.561 586.462 553.577 587.858 553.398C588.059 553.367 588.203 553.185 588.176 552.982C588.17 552.933 588.154 552.887 588.129 552.845C588.105 552.803 588.073 552.766 588.034 552.736C587.995 552.707 587.951 552.685 587.904 552.673C587.857 552.66 587.808 552.657 587.76 552.664C586.222 552.872 584.432 553.885 584.356 553.927C584.179 554.028 584.117 554.254 584.218 554.433C584.258 554.501 584.317 554.555 584.389 554.587C584.461 554.618 584.541 554.627 584.618 554.61ZM585.855 556.586C585.924 556.993 586.279 557.274 586.651 557.212C587.024 557.151 587.269 556.77 587.201 556.363C587.133 555.955 586.776 555.674 586.405 555.737C586.033 555.798 585.787 556.178 585.855 556.586ZM579.536 554.98C579.677 554.95 579.795 554.839 579.823 554.689C579.841 554.592 579.821 554.492 579.766 554.411C579.711 554.329 579.625 554.273 579.529 554.254C579.444 554.238 577.424 553.855 575.9 554.159C575.715 554.169 575.57 554.393 575.61 554.595C575.619 554.643 575.638 554.688 575.665 554.728C575.692 554.769 575.727 554.804 575.767 554.83C575.808 554.857 575.853 554.876 575.901 554.885C575.949 554.895 575.998 554.894 576.046 554.885C577.424 554.609 579.37 554.978 579.39 554.983C579.439 554.991 579.489 554.991 579.536 554.98ZM578.972 557.255C579.04 557.662 578.793 558.043 578.422 558.105C578.05 558.166 577.694 557.885 577.626 557.479C577.558 557.071 577.805 556.691 578.176 556.63C578.547 556.566 578.904 556.847 578.972 557.255ZM584.454 564.362C584.522 564.769 584.275 565.15 583.903 565.211C583.532 565.272 583.175 564.991 583.107 564.585C583.039 564.177 583.286 563.796 583.657 563.734C584.029 563.673 584.386 563.954 584.454 564.362Z" fill="#1B2E36"/>
<path d="M573.116 555.055C571.862 554.403 571.46 559.396 571.46 559.396C571.46 559.396 570.832 557.804 570.498 557.169C570.164 556.535 569.812 557.274 568.757 555.005C567.701 552.735 565.448 552.412 570.357 547.915C575.266 543.417 572.678 542.46 578.973 543.02C585.269 543.581 588.223 542.238 588.69 544.98C589.159 547.721 587.025 551.063 584.814 550.603C582.603 550.143 585.169 550.045 580.154 551.522C575.138 552.997 575.155 556.113 573.116 555.055Z" fill="#1B2E36"/>
<path d="M573.842 646.635H673.439V717.614H573.842V646.635Z" fill="#AE3B2A"/>
<path d="M666.804 655.8L673.439 646.635V717.614L666.804 726.778V655.8ZM567.207 655.8L573.842 646.635V717.614L567.207 726.778V655.8Z" fill="#E36247"/>
<path d="M608.956 663.956C608.956 663.956 586.133 654.015 590.515 640.841C593.479 631.932 599.419 633.35 603.312 639.512C603.312 639.512 605.25 628.238 615.112 632.976C624.973 637.715 616.473 658.599 608.956 663.956Z" fill="#FFBF9F"/>
<path d="M606.922 682.124C606.922 682.124 584.098 672.182 588.481 659.009C591.446 650.1 597.386 651.517 601.278 657.68C601.278 657.68 603.216 646.405 613.078 651.144C622.939 655.883 614.441 676.766 606.922 682.124Z" fill="#FA9C70"/>
<path d="M627.987 663.161C627.987 663.161 608.321 654.595 612.098 643.245C614.652 635.57 619.77 636.79 623.124 642.099C623.124 642.099 624.794 632.385 633.292 636.468C641.788 640.552 634.466 658.544 627.987 663.161Z" fill="#AE3B2A"/>
<path d="M623.506 679.698C623.506 679.698 606.728 661.316 616.108 651.077C622.452 644.151 627.296 647.866 628.333 655.08C628.333 655.08 634.707 645.576 641.775 653.924C648.845 662.271 632.558 677.871 623.506 679.698Z" fill="#FFBF9F"/>
<path d="M586.954 662.117C586.954 662.117 569.692 650.52 575.277 640.351C579.053 633.476 583.721 635.532 585.993 641.181C585.993 641.181 589.282 632.206 596.674 637.582C604.063 642.959 593.938 658.844 586.954 662.117Z" fill="#FA9C70"/>
<path d="M604.298 640.397L610.1 647.848L619.533 647.295L614.234 655.112L617.674 663.907L608.597 661.287L601.291 667.273L600.98 657.837L593.023 652.744L601.908 649.532L604.298 640.397Z" fill="white"/>
<path d="M626.137 643.474L630.29 648.808L637.042 648.413L633.249 654.008L635.712 660.303L629.213 658.427L623.985 662.712L623.762 655.957L618.066 652.312L624.427 650.013L626.137 643.474Z" fill="#FA9C70"/>
<path d="M628.817 659.791C628.817 659.791 613.557 640.131 623.725 630.671C630.602 624.274 635.133 628.362 635.592 635.636C635.592 635.636 642.703 626.67 649.084 635.555C655.463 644.438 637.984 658.692 628.817 659.791Z" fill="#FFBF9F"/>
<path d="M618.314 674.761C618.314 674.761 603.055 655.101 613.222 645.641C620.099 639.244 624.63 643.332 625.089 650.605C625.089 650.605 632.2 641.639 638.581 650.524C644.961 659.408 627.482 673.662 618.314 674.761Z" fill="#FA9C70"/>
<path d="M645.898 668.212C645.898 668.212 632.75 651.273 641.511 643.122C647.435 637.609 651.34 641.132 651.735 647.399C651.735 647.399 657.863 639.674 663.36 647.329C668.858 654.985 653.797 667.265 645.898 668.212Z" fill="#AE3B2A"/>
<path d="M634.03 680.577C634.03 680.577 628.127 656.407 641.274 651.916C650.164 648.879 652.632 654.459 650.081 661.286C650.081 661.286 660.235 656.001 662.432 666.712C664.629 677.425 642.851 683.312 634.03 680.577Z" fill="#FFBF9F"/>
<path d="M636.033 636.885L637.549 646.205L646.092 650.239L637.691 654.56L636.49 663.925L629.782 657.276L620.498 659.03L624.752 650.6L620.215 642.318L629.553 643.757L636.033 636.885Z" fill="white"/>
<path d="M653.721 650.05L654.806 656.72L660.921 659.608L654.907 662.701L654.048 669.405L649.246 664.645L642.601 665.9L645.646 659.867L642.399 653.939L649.082 654.969L653.721 650.05Z" fill="#FA9C70"/>
<path opacity="0.2" d="M579.699 655.807L576.971 652.589H606.854L605.948 653.989L664.54 652.595L663.685 656.003L579.699 655.807Z" fill="#EA5455"/>
<path d="M567.207 655.8H666.804V726.777H567.207V655.8Z" fill="#FA9C70"/>
<path d="M564.828 575.979C564.828 575.979 530.624 598.285 534.58 606.837C538.535 615.388 549.531 616.637 549.531 616.637L564.828 575.979ZM588.959 575.979C588.959 575.979 623.164 598.285 619.208 606.837C615.253 615.388 604.257 616.637 604.257 616.637L588.959 575.979Z" fill="#E36247"/>
<path d="M577.928 609.324C577.928 609.324 573.421 608.977 572.492 609.884C570.336 611.99 569.876 615.009 570.248 615.888C572.579 613.107 577.928 609.324 577.928 609.324Z" fill="#FF9C92"/>
<path opacity="0.2" d="M572.218 611.818C572.242 611.224 572.367 610.629 572.348 610.034C570.319 612.132 569.884 615.029 570.247 615.888C570.856 615.161 571.673 614.364 572.546 613.586C572.338 613.016 572.193 612.433 572.218 611.818Z" fill="white"/>
<path d="M637.306 598.011H582.151C577.001 598.011 572.826 602.183 572.826 607.329C572.826 612.475 577.001 616.647 582.151 616.647H637.306C642.456 616.647 646.631 612.475 646.631 607.329C646.631 602.183 642.456 598.011 637.306 598.011Z" fill="#FA9C70"/>
<path d="M591.157 611.856C589.255 611.856 587.768 610.912 587.706 609.124H589.999C590.062 609.804 590.491 610.131 591.095 610.131C591.724 610.131 592.128 609.816 592.128 609.3C592.128 607.663 587.706 608.545 587.731 605.41C587.731 603.735 589.104 602.804 590.957 602.804C592.885 602.804 594.183 603.761 594.271 605.448H591.94C591.902 604.881 591.5 604.54 590.92 604.529C590.403 604.516 590.013 604.78 590.013 605.334C590.013 606.871 594.386 606.178 594.386 609.136C594.383 610.622 593.225 611.856 591.157 611.856ZM596.492 602.929H603.334V604.654H600.991V611.768H598.837V604.654H596.493V602.929H596.492ZM609.865 611.856C607.359 611.856 605.317 609.981 605.317 607.324C605.317 604.667 607.357 602.804 609.865 602.804C612.385 602.804 614.389 604.667 614.389 607.324C614.389 609.979 612.374 611.856 609.865 611.856ZM609.865 609.891C611.277 609.891 612.196 608.871 612.196 607.322C612.196 605.749 611.277 604.753 609.865 604.753C608.429 604.753 607.522 605.747 607.522 607.322C607.522 608.871 608.43 609.891 609.865 609.891ZM620.469 602.929C622.636 602.929 623.721 604.176 623.721 605.711C623.721 606.818 623.115 607.865 621.755 608.267L623.796 611.767H621.365L619.526 608.43H619.009V611.767H616.854V602.927H620.469V602.929ZM620.343 604.717H619.007V606.908H620.343C621.149 606.908 621.528 606.492 621.528 605.8C621.528 605.144 621.15 604.717 620.343 604.717ZM631.751 604.654H628.487V606.442H631.373V608.103H628.487V610.043H631.751V611.768H626.333V602.929H631.751V604.654Z" fill="#FFBF9F"/>
<path d="M578.496 622.549C579.304 622.144 580.092 621.696 580.792 621.21L580.795 621.213C580.798 621.21 580.798 621.21 580.802 621.21C580.838 621.187 581.032 621.081 581.314 620.92L581.317 620.917C581.54 620.79 581.805 620.623 582.087 620.437C582.087 620.437 585.378 618.56 585.236 617.43C585.094 616.3 584.245 616.162 584.245 616.162C584.245 616.162 584.949 615.31 584.4 614.377C583.853 613.444 583.066 613.545 583.066 613.545C583.066 613.545 583.735 612.776 583.117 611.714C582.497 610.652 581.376 610.683 581.376 610.683C581.376 610.683 582.314 609.461 580.592 608.644C578.878 607.832 576.746 609.631 576.647 609.695C576.219 609.958 575.816 610.236 575.438 610.517C575.335 610.595 570.308 615.419 570.222 615.514C564.116 622.376 517.406 625.059 527.143 642.46C535.543 657.472 573.462 623.567 573.462 623.567C573.462 623.567 575.463 624.063 578.496 622.549Z" fill="#FF9C92"/>
<path opacity="0.2" d="M580.792 621.21L580.795 621.213C580.798 621.21 580.798 621.21 580.802 621.21C580.838 621.187 581.032 621.081 581.314 620.92L581.317 620.917C581.54 620.79 581.805 620.623 582.087 620.437C582.087 620.437 585.378 618.56 585.236 617.43C585.094 616.3 584.245 616.162 584.245 616.162C584.245 616.162 584.949 615.31 584.4 614.377C583.853 613.444 583.066 613.545 583.066 613.545C583.066 613.545 583.735 612.777 583.117 611.714C582.497 610.652 581.376 610.684 581.376 610.684C581.376 610.684 582.314 609.461 580.592 608.644C579.975 608.352 579.306 608.4 578.696 608.58C579.363 608.845 580.016 609.323 580.352 609.947C580.438 610.107 580.502 610.282 580.525 610.463C580.552 610.671 580.519 610.879 580.526 611.088C580.542 611.54 580.916 611.797 581.23 612.072C581.635 612.429 581.996 612.816 582.156 613.343C582.277 613.738 582.276 614.153 582.303 614.562C582.331 614.99 582.424 615.408 582.696 615.751C582.956 616.079 583.211 616.379 583.337 616.787C583.556 617.491 583.283 618.187 582.838 618.738C582.532 619.12 582.146 619.426 581.773 619.74C581.285 620.148 580.791 620.547 580.296 620.946C579.449 621.629 578.617 622.313 577.693 622.89C577.956 622.793 578.223 622.684 578.497 622.546C579.304 622.146 580.09 621.696 580.792 621.21Z" fill="white"/>
<path d="M639.261 622.006C635.329 619.784 633.415 613.13 634.944 611.855C635.66 611.259 637.353 613.239 638.989 615.524C637.091 612.657 635.376 609.275 636.425 609.015C637.231 608.815 639.597 612.189 641.313 614.397C640.275 612.775 638.069 609.062 638.72 608.529C639.548 607.851 642.113 611.046 643.537 613.296C642.781 611.899 641.525 609.368 642.186 608.977C642.771 608.629 643.692 608.996 645.471 611.834C646.51 613.489 646.794 613.238 647.117 614.084C647.367 614.736 647.698 615.385 647.641 616.01C647.366 619.017 640.707 622.824 639.261 622.006Z" fill="#FF9C92"/>
<path opacity="0.2" d="M642.426 609.146C642.151 609.38 642.524 610.459 642.637 610.523C642.637 610.523 643.444 610.064 643.545 609.924C643.647 609.783 642.701 608.911 642.426 609.146ZM638.849 608.597C638.574 608.832 638.948 609.911 639.061 609.975C639.061 609.975 639.868 609.516 639.969 609.376C640.07 609.234 639.125 608.363 638.849 608.597ZM636.425 609.346C636.149 609.58 636.523 610.659 636.635 610.723C636.635 610.723 637.443 610.265 637.544 610.124C637.647 609.982 636.701 609.111 636.425 609.346ZM635.035 612.228C634.76 612.463 635.133 613.542 635.246 613.604C635.246 613.604 636.053 613.146 636.154 613.005C636.256 612.866 635.31 611.994 635.035 612.228Z" fill="white"/>
</g>
<defs>
<clipPath id="clip0_26_2">
<rect width="1440" height="912" fill="white"/>
</clipPath>
</defs>
</svg>
